<svg xmlns="http://www.w3.org/2000/svg" viewBox="0 0 9.12 13.34"><defs><style>.cls-1,.cls-2{fill:#202a33;}.cls-1{fill-rule:evenodd;}</style></defs><g id="Layer_2" data-name="Layer 2"><g id="Layer_1-2" data-name="Layer 1"><path class="cls-1" d="M5.58,2.8a.56.56,0,0,1,1.12,0h0a.56.56,0,0,1-1.12,0Zm-2.23,0a.55.55,0,0,1-.55.55.53.53,0,0,1-.55-.53v0a.56.56,0,0,1,.53-.57h0a.57.57,0,0,1,.55.57ZM0,5H8.93A4.46,4.46,0,0,0,7.11,1.41L8,.53A.28.28,0,0,0,8.06.14L8,.08a.27.27,0,0,0-.39,0h0l-1,1a4.46,4.46,0,0,0-4.29,0l-1-1a.26.26,0,0,0-.37,0h0a.3.3,0,0,0,0,.4l.89.93A4.52,4.52,0,0,0,0,5Z"/><path class="cls-2" d="M6.71,13.26,9.12,7.33H7.91l-2,5.11h.41l-2-5.11H3.14l2.4,5.93Zm-3.87.07V12.27H2.72a1.34,1.34,0,0,1-1.46-1.21,1,1,0,0,1,0-.17V8.31H2.8v-1H1.25V5.73H.19v5.16a2.31,2.31,0,0,0,2.16,2.45h.49Z"/></g></g></svg>