<svg xmlns="http://www.w3.org/2000/svg" viewBox="0 0 11.5 14.08"><defs><style>.cls-1{fill:#202a33;fill-rule:evenodd;}</style></defs><g id="Layer_2" data-name="Layer 2"><g id="Layer_1-2" data-name="Layer 1"><path class="cls-1" d="M6.62,2.17a.45.45,0,0,1,.44-.44.45.45,0,1,1,0,.89A.45.45,0,0,1,6.62,2.17ZM1.77,8.34V5.28A1,1,0,0,0,.89,4.4,1,1,0,0,0,0,5.28V8.34a.93.93,0,0,0,.89.89A.93.93,0,0,0,1.77,8.34Zm7.53-4H2.23v5.73a.85.85,0,0,0,.84.84h.05V13.2a.92.92,0,0,0,.89.88.88.88,0,0,0,.88-.88V10.93H6.65v2.25a.92.92,0,0,0,.89.88.88.88,0,0,0,.88-.88V10.93h.05a.84.84,0,0,0,.83-.84Zm.44.87V8.34a1,1,0,0,0,.89.89.93.93,0,0,0,.87-.89V5.28a.94.94,0,0,0-.9-.94.89.89,0,0,0-.89.87ZM4.86,2.17a.45.45,0,0,1-.45.45h0A.44.44,0,0,1,4,2.18H4a.44.44,0,0,1,.43-.44h0a.45.45,0,0,1,.45.44ZM2.2,3.94H9.27A3.5,3.5,0,0,0,7.81,1.12L8.55.37a.23.23,0,0,0,0-.31.23.23,0,0,0-.31,0L7.42.87a3.5,3.5,0,0,0-3.36,0L3.24.06A.2.2,0,0,0,3,.05H3a.21.21,0,0,0,0,.3H3l.72.75A3.55,3.55,0,0,0,2.2,3.94Z"/></g></g></svg>