<svg xmlns="http://www.w3.org/2000/svg" viewBox="0 0 11.4 14.05"><defs><style>.cls-1{fill:#202a33;}</style></defs><g id="Layer_2" data-name="Layer 2"><g id="Layer_1-2" data-name="Layer 1"><path id="Apple" class="cls-1" d="M6.42,1.07A3.11,3.11,0,0,1,8.47,0a3.08,3.08,0,0,1-.73,2.25,2.62,2.62,0,0,1-2.08,1A2.93,2.93,0,0,1,6.42,1.07Zm4,11.24C9.84,13.16,9.24,14,8.29,14S7.05,13.48,6,13.48s-1.4.53-2.29.57-1.62-.94-2.2-1.78C.27,10.53-.65,7.34.59,5.19A3.4,3.4,0,0,1,3.48,3.42c.94,0,1.76.62,2.31.62s1.59-.76,2.68-.65A3.27,3.27,0,0,1,11,4.78,3.17,3.17,0,0,0,9.52,7.46a3.1,3.1,0,0,0,1.88,2.81A7.8,7.8,0,0,1,10.43,12.31Z"/></g></g></svg>