<svg xmlns="http://www.w3.org/2000/svg" viewBox="0 0 11.74 5.58"><defs><style>.cls-1{fill:#202a33;fill-rule:evenodd;}</style></defs><g id="Layer_2" data-name="Layer 2"><g id="Layer_1-2" data-name="Layer 1"><path class="cls-1" d="M6.79.45v.9H7.93v.34H6.79V4.37A1.14,1.14,0,0,0,6.92,5a.5.5,0,0,0,.46.22,1.13,1.13,0,0,0,.26,0l.19,0,0,.32a1.51,1.51,0,0,1-.55.09,1.27,1.27,0,0,1-.47-.09.75.75,0,0,1-.29-.27,1,1,0,0,1-.15-.4,2.19,2.19,0,0,1,0-.51V1.72H5.7V1.35h.68V.61L6.79.46Zm1.8.9.93,2.56q.12.3.21.57c.07.18.13.37.18.52h0c.06-.16.12-.34.18-.52s.14-.37.22-.57l1-2.56h.45L10.1,5.47H9.75L8.16,1.35ZM2.51.48A1.19,1.19,0,0,1,3.38,0a1.17,1.17,0,0,1-.29.89.91.91,0,0,1-.82.37A1,1,0,0,1,2.51.47Zm-.2,1.11c.19,0,.54-.26,1-.26a1.27,1.27,0,0,1,1.09.56,1.22,1.22,0,0,0,.14,2.17S4,5.54,3.3,5.54c-.32,0-.58-.22-.92-.22s-.69.23-.92.23C.82,5.55,0,4.15,0,3S.7,1.35,1.36,1.35c.43,0,.75.24,1,.24Z"/></g></g></svg>