<svg width="26" height="26" viewBox="0 0 26 26" fill="none" xmlns="http://www.w3.org/2000/svg">
<path fill-rule="evenodd" clip-rule="evenodd" d="M8.34503 0.000233736C7.11989 -0.0175289 6.11189 0.979329 6.09188 2.22848V2.27634C2.36958 4.54589 0.0647198 8.61832 0 13.04V13.2367C0.0521565 20.2831 5.85196 26 12.9974 26C14.9821 26.0051 16.9426 25.5562 18.7346 24.6864C19.0704 24.8604 19.4428 24.948 19.8195 24.9417C20.4088 24.9516 20.9778 24.7224 21.4013 24.3045C21.8249 23.8867 22.0682 23.3143 22.0778 22.7134C22.0754 22.5941 22.0649 22.475 22.0465 22.3571C24.5606 19.9769 25.9925 16.6391 26 13.141C25.9939 9.90295 24.7627 6.79213 22.5629 4.45672L21.3268 5.57882C23.2439 7.61195 24.3181 10.3206 24.3258 13.141C24.3176 16.0607 23.1689 18.8567 21.1338 20.9106C20.7477 20.6331 20.2867 20.4845 19.8142 20.4852C18.5891 20.4674 17.5811 21.4643 17.5611 22.7134C17.5609 22.9241 17.5908 23.1337 17.6497 23.3356C16.1827 23.9896 14.5986 24.3265 12.9974 24.3248C6.73862 24.3248 1.66901 19.3099 1.66901 13.157C1.68604 9.36214 3.60168 5.83871 6.74905 3.81324C7.17039 4.22438 7.73055 4.45474 8.31374 4.45672C8.90572 4.47097 9.47879 4.2437 9.90574 3.82534C10.3327 3.40698 10.5782 2.83216 10.5878 2.22848C11.3803 2.05931 12.1877 1.97377 12.9974 1.97321C14.0688 1.96766 15.1359 2.1126 16.1685 2.40397L15.334 5.03106C14.5539 4.80354 13.7462 4.68897 12.9348 4.69071C10.7188 4.65376 8.57942 5.51714 6.98847 7.09042C5.39753 8.6637 4.48572 10.8176 4.45416 13.0772C4.45585 13.584 4.50299 14.0895 4.59499 14.5875C4.10547 15.0033 3.82105 15.6184 3.81785 16.268C3.8407 17.518 4.8502 18.514 6.07623 18.4963C6.19859 18.4962 6.32073 18.4855 6.44132 18.4643C8.08032 20.3813 10.4563 21.4761 12.9505 21.4637C15.1682 21.5035 17.3103 20.6414 18.9035 19.0678C20.4967 17.4942 21.41 15.3386 21.4415 13.0772C21.4426 10.9838 20.659 8.96905 19.251 7.44544L18.0148 8.5569C19.1399 9.77663 19.7683 11.3868 19.7725 13.0613C19.7464 14.8793 19.013 16.6124 17.7335 17.879C16.4541 19.1457 14.7335 19.8421 12.9505 19.8151C11.0334 19.8207 9.19973 19.0159 7.88606 17.5922C8.17775 17.2143 8.33908 16.7489 8.34503 16.268C8.32646 15.0667 7.38934 14.0902 6.21184 14.0451C6.16795 13.7244 6.14529 13.401 6.14403 13.0772C6.20691 9.30375 9.24938 6.2919 12.9505 6.33929C13.5943 6.33953 14.2349 6.4308 14.8542 6.61051L13.5607 10.7001C13.3101 10.6247 13.05 10.5871 12.7888 10.5884C12.1101 10.5713 11.4529 10.8313 10.9632 11.3106C10.4735 11.79 10.1919 12.4489 10.1809 13.141C10.1918 13.8326 10.4736 14.4911 10.9635 14.9696C11.4534 15.4481 12.1106 15.7069 12.7888 15.6883C13.4624 15.6997 14.113 15.4377 14.5972 14.96C15.0813 14.4822 15.3595 13.8279 15.3705 13.141C15.3696 12.4733 15.1066 11.8337 14.6403 11.3648C14.5597 11.2798 14.4725 11.2015 14.3795 11.1308L17.0865 7.72198L20.8626 2.92514C19.6039 1.97988 18.1914 1.26875 16.6901 0.824524C15.493 0.473116 14.2535 0.294116 13.0078 0.292724C11.9771 0.293168 10.9498 0.414507 9.94624 0.654348C9.51503 0.2342 8.94147 -0.000109838 8.34503 0.000233736ZM11.8916 13.141C11.8945 12.64 12.2921 12.2345 12.7835 12.2316C12.8758 12.2337 12.9672 12.2498 13.0547 12.2795L13.3416 12.4284C13.3748 12.4526 13.4046 12.4812 13.4303 12.5135C13.5987 12.675 13.6948 12.8999 13.6963 13.1357C13.6921 13.3783 13.5937 13.6093 13.4225 13.7778C13.2513 13.9464 13.0215 14.0387 12.7835 14.0344C12.2901 14.0404 11.8846 13.6388 11.876 13.1357L11.8916 13.141Z" fill="url(#paint0_linear_37_6)"/>
<defs>
<linearGradient id="paint0_linear_37_6" x1="26.1392" y1="-0.442148" x2="0.144368" y2="-0.442148" gradientUnits="userSpaceOnUse">
<stop stop-color="#E40201"/>
<stop offset="1" stop-color="#FD3824"/>
</linearGradient>
</defs>
</svg>
