<svg width="38" height="53" viewBox="0 0 38 53" fill="none" xmlns="http://www.w3.org/2000/svg">
<g clip-path="url(#clip0_108_5184)">
<path d="M19.4913 8.32035L22.1571 13.9932C22.2415 14.1523 22.3933 14.276 22.5621 14.3114L28.5348 15.2127C28.9735 15.2833 29.1591 15.8489 28.8386 16.1847L24.5192 20.6028C24.3843 20.7265 24.3337 20.9209 24.3674 21.0976L25.3797 27.336C25.4472 27.7955 24.9917 28.149 24.6036 27.9369L19.2551 24.9856C19.1032 24.8972 18.9177 24.8972 18.7489 24.9856L13.4004 27.9369C13.0124 28.149 12.5399 27.7955 12.6243 27.336L13.6366 21.0976C13.6704 20.9209 13.6029 20.7265 13.4848 20.6028L9.16548 16.1847C8.84491 15.8489 9.01363 15.2833 9.46918 15.2127L15.4588 14.2937C15.6276 14.2583 15.7794 14.1523 15.8638 13.9756L18.5296 8.30268C18.7321 7.89621 19.3057 7.89621 19.4913 8.32035Z" fill="white"/>
<path d="M36.5427 18.2222C34.8972 17.7802 34.5783 15.6053 36.0401 14.7133C37.8352 13.6069 36.8087 10.8387 34.7124 11.1566C33.0391 11.4074 31.8534 9.54898 32.8082 8.15755C34.0063 6.42288 31.9251 4.29688 30.1478 5.43997C28.7224 6.35074 26.8856 5.14007 27.1837 3.46608C27.5606 1.39189 24.8047 0.296351 23.6428 2.06799C22.706 3.47791 20.5275 3.10161 20.1277 1.47281C19.6235 -0.576938 16.6493 -0.471624 16.309 1.60307C16.0292 3.27731 13.8933 3.81359 12.8473 2.4678C11.5488 0.808488 8.88863 2.10368 9.42975 4.13569C9.86627 5.76499 8.12274 7.12741 6.629 6.32271C4.75221 5.34861 2.8678 7.62111 4.18497 9.26243C5.24951 10.5902 4.21379 12.5278 2.52737 12.3953C0.418967 12.2571 -0.390443 15.0914 1.48659 16.0473C2.99918 16.8158 2.85897 19.0209 1.25482 19.5827C-0.736604 20.2851 -0.317767 23.2091 1.80923 23.3294C3.5145 23.4256 4.27528 25.4971 3.0482 26.6659C1.52359 28.1226 3.10426 30.6248 5.07808 29.8674C6.66438 29.2689 8.22105 30.8405 7.5756 32.4186C6.77814 34.3776 9.23306 36.0162 10.7398 34.5229C11.9488 33.3356 14.0113 34.148 14.0615 35.845C14.1246 37.9435 17.0537 38.4577 17.8147 36.4799C18.4234 34.9014 20.6449 34.8223 21.3765 36.3462C22.3049 38.2375 25.1774 37.5107 25.0776 35.4117C24.9907 33.7143 26.9856 32.7565 28.2736 33.8503C29.8883 35.2038 32.2251 33.3935 31.2784 31.5019C30.5099 29.9957 31.9277 28.3005 33.5543 28.7787C35.5831 29.3719 36.9766 26.7644 35.325 25.4285C34.0001 24.3525 34.6161 22.2451 36.2891 22.0126C38.4033 21.7314 38.5904 18.7791 36.5427 18.2222ZM18.7193 33.3915C10.61 33.2808 4.13092 26.6625 4.24096 18.602C4.35101 10.5415 11.0083 4.10252 19.1177 4.21323C27.227 4.32394 33.7061 10.9423 33.596 19.0028C33.486 27.0633 26.8286 33.5022 18.7193 33.3915Z" fill="white"/>
<path d="M30 33V49.8397C30 50.7143 28.9884 51.2802 28.1641 50.8514L20.1838 45.3468C19.7716 45.0724 19.2284 45.0724 18.8162 45.3468L10.8359 50.8514C10.0116 51.2802 9 50.7314 9 49.8397V33" stroke="white" stroke-width="2" stroke-miterlimit="10"/>
</g>
<defs>
<clipPath id="clip0_108_5184">
<rect width="38" height="53" fill="white"/>
</clipPath>
</defs>
</svg>
