<?xml version="1.0" encoding="UTF-8"?>
<svg width="48px" height="48px" viewBox="0 0 48 48" version="1.1" xmlns="http://www.w3.org/2000/svg" xmlns:xlink="http://www.w3.org/1999/xlink">
    <title>DEED247E-2913-4C72-B268-76DBBD3A32D9</title>
    <g id="Page-1" stroke="none" stroke-width="1" fill="none" fill-rule="evenodd">
        <g id="Desktop_Best_VPN_evergreen_page" transform="translate(-403.000000, -824.000000)">
            <g id="Best-VPN-By-Device" transform="translate(403.000000, 824.000000)">
                <circle id="Oval" fill="#DAEFFF" cx="24" cy="24" r="24"></circle>
                <g id="devices_black_36dp-(2)">
                    <polygon id="Path" points="0 0 48 0 48 48 0 48"></polygon>
                    <path d="M8,12 L44,12 L44,8 L8,8 C5.8,8 4,9.8 4,12 L4,34 L0,34 L0,40 L28,40 L28,34 L8,34 L8,12 Z M46,16 L34,16 C32.9,16 32,16.9 32,18 L32,38 C32,39.1 32.9,40 34,40 L46,40 C47.1,40 48,39.1 48,38 L48,18 C48,16.9 47.1,16 46,16 Z M44,34 L36,34 L36,20 L44,20 L44,34 Z" id="Shape" fill="#006ADE" fill-rule="nonzero"></path>
                </g>
            </g>
        </g>
    </g>
</svg>