<?xml version="1.0" encoding="UTF-8"?>
<svg width="48px" height="48px" viewBox="0 0 48 48" version="1.1" xmlns="http://www.w3.org/2000/svg" xmlns:xlink="http://www.w3.org/1999/xlink">
    <title>66A3BFA5-2E4F-4A59-BE30-4D2BE102FAA2</title>
    <g id="Page-1" stroke="none" stroke-width="1" fill="none" fill-rule="evenodd">
        <g id="Desktop_Best_VPN_evergreen_page" transform="translate(-793.000000, -824.000000)">
            <g id="Group-15" transform="translate(793.000000, 824.000000)">
                <circle id="Oval" fill="#DAEFFF" cx="24" cy="24" r="24"></circle>
                <g id="location_on_black_36dp">
                    <polygon id="Path" points="0 0 48 0 48 48 0 48"></polygon>
                    <path d="M24,4 C16.26,4 10,10.26 10,18 C10,28.5 24,44 24,44 C24,44 38,28.5 38,18 C38,10.26 31.74,4 24,4 Z M14,18 C14,12.48 18.48,8 24,8 C29.52,8 34,12.48 34,18 C34,23.76 28.24,32.38 24,37.76 C19.84,32.42 14,23.7 14,18 Z" id="Shape" fill="#006ADE" fill-rule="nonzero"></path>
                    <circle id="Oval" fill="#006ADE" fill-rule="nonzero" cx="24" cy="18" r="5"></circle>
                </g>
            </g>
        </g>
    </g>
</svg>