<?xml version="1.0" encoding="UTF-8"?>
<svg width="49px" height="48px" viewBox="0 0 49 48" version="1.1" xmlns="http://www.w3.org/2000/svg" xmlns:xlink="http://www.w3.org/1999/xlink">
    <title>1C1E96BE-5B17-45AE-81B7-939ADA04B540</title>
    <g id="Page-1" stroke="none" stroke-width="1" fill="none" fill-rule="evenodd">
        <g id="Desktop_Best_VPN_evergreen_page" transform="translate(-208.000000, -824.000000)">
            <g id="best-VPN-by-popular" transform="translate(208.000000, 824.000000)">
                <circle id="Oval-Copy" fill="#DAEFFF" cx="24" cy="24" r="24"></circle>
                <g id="devices_black_36dp-(2)-copy">
                    <polygon id="Path" points="0 0 48 0 48 48 0 48"></polygon>
                </g>
                <g id="star_outline_black_48dp" transform="translate(1.000000, 0.000000)">
                    <polygon id="Path" points="0 0 48 0 48 48 0 48"></polygon>
                    <path d="M44,18.48 L29.62,17.24 L24,4 L18.38,17.26 L4,18.48 L14.92,27.94 L11.64,42 L24,34.54 L36.36,42 L33.1,27.94 L44,18.48 Z M24,30.8 L16.48,35.34 L18.48,26.78 L11.84,21.02 L20.6,20.26 L24,12.2 L27.42,20.28 L36.18,21.04 L29.54,26.8 L31.54,35.36 L24,30.8 Z" id="Shape" fill="#006ADE" fill-rule="nonzero"></path>
                </g>
            </g>
        </g>
    </g>
</svg>