<?xml version="1.0" encoding="UTF-8"?>
<svg width="48px" height="48px" viewBox="0 0 48 48" version="1.1" xmlns="http://www.w3.org/2000/svg" xmlns:xlink="http://www.w3.org/1999/xlink">
    <title>908DFDFE-73B7-4A5C-B995-E566813CD6EF</title>
    <g id="Page-1" stroke="none" stroke-width="1" fill="none" fill-rule="evenodd">
        <g id="Desktop_Best_VPN_evergreen_page" transform="translate(-597.000000, -824.000000)">
            <g id="Group-12" transform="translate(597.000000, 824.000000)">
                <circle id="Oval" fill="#DAEFFF" cx="24" cy="24" r="24"></circle>
                <g id="gamepad_black_36dp">
                    <polygon id="Path" points="0 0 48 0 48 48 0 48"></polygon>
                    <path d="M26,8 L26,13.34 L24,15.34 L22,13.34 L22,8 L26,8 M40,22 L40,26 L34.66,26 L32.66,24 L34.66,22 L40,22 M13.34,22 L15.34,24 L13.34,26 L8,26 L8,22 L13.34,22 M24,32.66 L26,34.66 L26,40 L22,40 L22,34.66 L24,32.66 M30,4 L18,4 L18,15 L24,21 L30,15 L30,4 Z M44,18 L33,18 L27,24 L33,30 L44,30 L44,18 Z M15,18 L4,18 L4,30 L15,30 L21,24 L15,18 Z M24,27 L18,33 L18,44 L30,44 L30,33 L24,27 Z" id="Shape" fill="#006ADE" fill-rule="nonzero"></path>
                </g>
            </g>
        </g>
    </g>
</svg>