<svg width="59" height="54" viewBox="0 0 59 54" fill="none" xmlns="http://www.w3.org/2000/svg">
<g clip-path="url(#clip0_32_188)">
<path d="M57.5384 43.2467C60.0769 47.8441 56.7692 53.5325 51.5384 53.4545L29.3846 53.1428L7.23074 52.9091C1.99997 52.8312 -1.15388 46.987 1.53843 42.4675L12.8461 23.2208L24.1538 3.8961C26.8461 -0.623383 33.3846 -0.545461 35.923 4.05194L46.7692 23.6104L57.5384 43.2467Z" fill="#D81F27" stroke="white" stroke-width="1.4286" stroke-miterlimit="10"/>
<path d="M26.6904 31.4682V17.0526H31.9212V31.4682H26.6904ZM26.6904 40.8188V35.2864H31.9212V40.8188H26.6904Z" fill="white"/>
<path d="M50.0267 49.9987C53.0501 50.0745 54.9674 46.7399 53.4925 44.0116L43.5373 25.5196L33.4346 7.0277C31.9598 4.37517 28.1989 4.29938 26.6503 6.95191L16.1052 25.1407L5.56 43.3295C4.01141 45.982 5.85497 49.3166 8.87841 49.3924L29.4525 49.6956L50.0267 49.9987Z" stroke="white" stroke-miterlimit="10"/>
</g>
<defs>
<clipPath id="clip0_32_188">
<rect width="59" height="54" fill="white"/>
</clipPath>
</defs>
</svg>
