<svg xmlns="http://www.w3.org/2000/svg" viewBox="0 0 13.43 13.4"><defs><style>.cls-1{fill:#202a33;}</style></defs><g id="Layer_2" data-name="Layer 2"><g id="Layer_1-2" data-name="Layer 1"><path class="cls-1" d="M6.72,10.15A3.28,3.28,0,0,1,4.85,9.6,3.5,3.5,0,0,1,3.6,8.18L.84,3.36A6.89,6.89,0,0,0,0,6.72a6.46,6.46,0,0,0,1.64,4.39,6.54,6.54,0,0,0,4.08,2.24l2-3.37A2.84,2.84,0,0,1,6.72,10.15Z"/><path class="cls-1" d="M4.6,4a3.29,3.29,0,0,1,2.12-.64h5.77A6.72,6.72,0,0,0,10.07.9,6.5,6.5,0,0,0,6.72,0a6.63,6.63,0,0,0-5.3,2.6L3.36,5.87A3.45,3.45,0,0,1,4.6,4Z"/><path class="cls-1" d="M12.93,4.16H9a3.64,3.64,0,0,1,1.13,2.52,3.54,3.54,0,0,1-.6,2L6.8,13.4a6.44,6.44,0,0,0,4.69-2,6.45,6.45,0,0,0,1.94-4.72A5.94,5.94,0,0,0,12.93,4.16Z"/><circle class="cls-1" cx="6.72" cy="6.72" r="2.52"/></g></g></svg>