<?xml version="1.0" encoding="utf-8"?>
<!-- Generator: Adobe Illustrator 25.0.0, SVG Export Plug-In . SVG Version: 6.00 Build 0)  -->
<svg version="1.1" id="Layer_1" xmlns="http://www.w3.org/2000/svg" xmlns:xlink="http://www.w3.org/1999/xlink" x="0px" y="0px"
	 viewBox="0 0 15.7 20.5" enable-background="new 0 0 15.7 20.5" xml:space="preserve">
<g>
	<g>
		<g>
			<path fill="#818181" stroke="#818181" stroke-width="0.5" stroke-miterlimit="10" d="M4,4.3H0.6c-0.1,0-0.2-0.1-0.3-0.2
				c0-0.1,0-0.2,0.1-0.3l3.5-3.5C3.9,0.3,4,0.2,4.1,0.3c0.1,0,0.2,0.2,0.2,0.3V4C4.3,4.2,4.2,4.3,4,4.3z M1.3,3.7h2.4V1.3L1.3,3.7z"
				/>
		</g>
		<g>
			<path fill="#818181" stroke="#818181" stroke-width="0.5" stroke-miterlimit="10" d="M15.1,20.2H0.6c-0.2,0-0.3-0.1-0.3-0.3V4
				c0-0.1,0-0.2,0.1-0.2l3.5-3.5C3.8,0.3,3.9,0.2,4,0.2h11.1c0.2,0,0.3,0.1,0.3,0.3v19.4C15.4,20.1,15.3,20.2,15.1,20.2z M0.9,19.6
				h14V0.9H4.1L0.9,4.1V19.6z"/>
		</g>
	</g>
	<g>
		<g>
			<path fill="#818181" stroke="#818181" stroke-width="0.5" stroke-miterlimit="10" d="M12.5,6.7H5.9c-0.2,0-0.3-0.1-0.3-0.3
				s0.1-0.3,0.3-0.3h6.6c0.2,0,0.3,0.1,0.3,0.3S12.7,6.7,12.5,6.7z"/>
		</g>
		<g>
			<path fill="#818181" stroke="#818181" stroke-width="0.5" stroke-miterlimit="10" d="M12.5,10.2H3.2C3,10.2,2.9,10,2.9,9.8
				c0-0.2,0.1-0.3,0.3-0.3h9.3c0.2,0,0.3,0.1,0.3,0.3C12.8,10,12.7,10.2,12.5,10.2z"/>
		</g>
		<g>
			<path fill="#818181" stroke="#818181" stroke-width="0.5" stroke-miterlimit="10" d="M12.5,13.6H3.2c-0.2,0-0.3-0.1-0.3-0.3
				C2.9,13.1,3,13,3.2,13h9.3c0.2,0,0.3,0.1,0.3,0.3C12.8,13.5,12.7,13.6,12.5,13.6z"/>
		</g>
		<g>
			<path fill="#818181" stroke="#818181" stroke-width="0.5" stroke-miterlimit="10" d="M9.1,17.1H3.2c-0.2,0-0.3-0.1-0.3-0.3
				c0-0.2,0.1-0.3,0.3-0.3h5.9c0.2,0,0.3,0.1,0.3,0.3C9.4,16.9,9.3,17.1,9.1,17.1z"/>
		</g>
	</g>
</g>
<g>
</g>
<g>
</g>
<g>
</g>
<g>
</g>
<g>
</g>
<g>
</g>
<g>
</g>
<g>
</g>
<g>
</g>
<g>
</g>
<g>
</g>
<g>
</g>
<g>
</g>
<g>
</g>
<g>
</g>
</svg>
