<svg id="Layer_1" data-name="Layer 1" xmlns="http://www.w3.org/2000/svg" viewBox="0 0 12 22"><defs><style>.cls-1{fill:#818181;}</style></defs><path class="cls-1" d="M6,19.8c-3.31,0-6-2.2-6-4.91a1,1,0,0,1,2,0c0,1.6,1.79,2.91,4,2.91s4-1.31,4-2.91c0-1-.51-2-4.25-2.93C4.33,11.59,0,10.49,0,7.08c0-2.7,2.69-4.9,6-4.9s6,2.2,6,4.9a1,1,0,0,1-2,0c0-1.6-1.79-2.9-4-2.9s-4,1.3-4,2.9C2,8.33,3.39,9.29,6.25,10S12,11.89,12,14.89C12,17.6,9.31,19.8,6,19.8Z"/><path class="cls-1" d="M6,4.2a1,1,0,0,1-1-1V1A1,1,0,0,1,7,1V3.2A1,1,0,0,1,6,4.2Z"/><path class="cls-1" d="M6,22a1,1,0,0,1-1-1V18.8a1,1,0,0,1,2,0V21A1,1,0,0,1,6,22Z"/></svg>