<svg width="36" height="37" viewBox="0 0 36 37" fill="none" xmlns="http://www.w3.org/2000/svg">
<path d="M35.5104 31.1296L28.4997 24.119C28.1833 23.8025 27.7544 23.6267 27.3043 23.6267H26.1582C28.0989 21.1445 29.2521 18.0224 29.2521 14.6261C29.2521 6.54657 22.7056 0 14.6261 0C6.54657 0 0 6.54657 0 14.6261C0 22.7056 6.54657 29.2521 14.6261 29.2521C18.0224 29.2521 21.1445 28.0989 23.6267 26.1582V27.3043C23.6267 27.7544 23.8025 28.1833 24.1189 28.4997L31.1296 35.5104C31.7906 36.1714 32.8594 36.1714 33.5134 35.5104L35.5034 33.5204C36.1644 32.8594 36.1644 31.7906 35.5104 31.1296ZM14.6261 23.6267C9.65461 23.6267 5.62541 19.6046 5.62541 14.6261C5.62541 9.65461 9.64758 5.62541 14.6261 5.62541C19.5975 5.62541 23.6267 9.64758 23.6267 14.6261C23.6267 19.5975 19.6046 23.6267 14.6261 23.6267Z" fill="url(#paint0_linear_210_2948)"/>
<defs>
<linearGradient id="paint0_linear_210_2948" x1="18" y1="0" x2="18" y2="36.0061" gradientUnits="userSpaceOnUse">
<stop stop-color="#FD3824"/>
<stop offset="1" stop-color="#E40201"/>
</linearGradient>
</defs>
</svg>
