<svg xmlns="http://www.w3.org/2000/svg" viewBox="0 0 13.48 7.25"><defs><style>.cls-1{fill:#202a33;fill-rule:evenodd;}</style></defs><g id="Layer_2" data-name="Layer 2"><g id="Layer_1-2" data-name="Layer 1"><path class="cls-1" d="M10.9,5.94A7.65,7.65,0,0,1,6.63,7.25a7.74,7.74,0,0,1-5.22-2c-.11-.1,0-.23.12-.15A10.5,10.5,0,0,0,6.75,6.48a10.26,10.26,0,0,0,4-.81C10.93,5.58,11.1,5.8,10.9,5.94Z"/><path class="cls-1" d="M11.38,5.39c-.14-.19-1-.09-1.35,0-.11,0-.13-.08,0-.15A2.09,2.09,0,0,1,11.88,5a2.07,2.07,0,0,1-.66,1.77c-.09.07-.18,0-.14-.08C11.22,6.36,11.53,5.58,11.38,5.39Z"/><path class="cls-1" d="M6.67,1.71c.64,0,.64.57.64.81H5.92A.73.73,0,0,1,6.67,1.71Zm1,1.19c.08,0,.1-.28.1-.39A1,1,0,0,0,7,1.3a.93.93,0,0,0-.29,0,1.23,1.23,0,0,0-1,.42,1.63,1.63,0,0,0-.35,1.08,1.56,1.56,0,0,0,.31,1.06,1.32,1.32,0,0,0,1.08.43,2.32,2.32,0,0,0,.87-.17c.1,0,.1-.08.1-.17V3.77c0-.08,0-.11-.13-.08a2.76,2.76,0,0,1-.76.14.94.94,0,0,1-.73-.27,1,1,0,0,1-.2-.66Z"/><path class="cls-1" d="M1.07,1.37V.82c0-.44.44-.38.72-.35C1.92.47,2,.47,2,.38V.2c0-.09,0-.13-.16-.16C1.12-.08.52,0,.52.92v.49l-.4,0c-.09,0-.12,0-.12.12v.15a.1.1,0,0,0,.11.11H.52V4.1c0,.07,0,.1.11.1H1c.07,0,.1,0,.1-.1V1.8h.75c.08,0,.11,0,.11-.11V1.48a.1.1,0,0,0-.11-.11Z"/><path class="cls-1" d="M2.84,1.37H2.51c-.08,0-.11,0-.11.11V4.07c0,.08,0,.11.11.11h.33c.08,0,.11,0,.11-.11V1.48a.1.1,0,0,0-.08-.11ZM2.68.2a.32.32,0,0,0-.34.31v0a.33.33,0,0,0,.38.3A.35.35,0,0,0,3,.54.32.32,0,0,0,2.74.2Z"/><path class="cls-1" d="M12.3,4.18H12a.15.15,0,0,1-.16-.11l-1-2.57c0-.08,0-.13.08-.13h.37c.07,0,.1,0,.13.11l.78,2.19.76-2.19c0-.08.07-.11.14-.11h.34c.1,0,.12,0,.08.13l-1,2.57C12.41,4.14,12.38,4.18,12.3,4.18Z"/><path class="cls-1" d="M9.08,3.46a.69.69,0,0,0,.61.76.49.49,0,0,0,.17,0,1.8,1.8,0,0,0,.46,0c.17,0,.17-.07.17-.15v-.2c0-.08,0-.1-.11-.09a2.09,2.09,0,0,1-.35,0c-.36,0-.4-.14-.4-.48V1.8h.73c.08,0,.11,0,.11-.11V1.48c0-.09,0-.12-.11-.12H9.63V.69A.09.09,0,0,0,9.56.57H9.31c-.09,0-.14,0-.14.12l-.07.7-.41.05c-.09,0-.12.05-.12.13v.13a.09.09,0,0,0,.08.11h.43Z"/><path class="cls-1" d="M4.2,1.77l0-.31c0-.08-.06-.09-.13-.09H3.79c-.08,0-.11,0-.11.11V4.07c0,.08,0,.11.11.11h.32c.08,0,.12,0,.12-.11v-2a1.16,1.16,0,0,1,.82-.27c.1,0,.24,0,.24-.07V1.45c0-.07,0-.11-.18-.11A1.11,1.11,0,0,0,4.2,1.77Z"/></g></g></svg>