<svg xmlns="http://www.w3.org/2000/svg" viewBox="0 0 12.98 13.57"><defs><style>.cls-1{fill:#202a33;}</style></defs><g id="Layer_2" data-name="Layer 2"><g id="Layer_1-2" data-name="Layer 1"><g id="comp_128-firefox" data-name="comp 128-firefox"><path class="cls-1" d="M13,6.21V6a1.83,1.83,0,0,0-.13.16,4.73,4.73,0,0,0-.16-.9,5.18,5.18,0,0,0-.4-1,3.46,3.46,0,0,0-.36-.62,1.21,1.21,0,0,0-.15-.22c-.24-.4-.52-.64-.84-1.09a3.56,3.56,0,0,1-.42-1.14,4.76,4.76,0,0,0-.2.74c-.33-.33-.62-.56-.79-.72C8.67.41,8.76,0,8.76,0s-1.59,1.8-.9,3.6A3.6,3.6,0,0,0,9,5.17a4.42,4.42,0,0,1,1.8,2.09,3.51,3.51,0,0,0-1.33-1.4,3.24,3.24,0,0,1,.26,1.27,3,3,0,0,1-3.69,2.93,2.69,2.69,0,0,1-.74-.25A2.86,2.86,0,0,1,4.44,9h0a2.85,2.85,0,0,0,.39.11,2.38,2.38,0,0,0,1.51-.18c.48-.27.76-.46,1-.39h0c.22.07.4-.14.24-.38a1.26,1.26,0,0,0-1.2-.46c-.48.07-.9.41-1.54.08l-.12-.07h.09a1.9,1.9,0,0,1-.39-.23h.08a1.42,1.42,0,0,1-.4-.41.7.7,0,0,1,0-.66.6.6,0,0,1,.21-.14l.12.07-.12-.1h0a2.29,2.29,0,0,1,.31.16.29.29,0,0,1,.14.13V6.43a.43.43,0,0,0-.15-.18h0l.18.11A.85.85,0,0,0,5,6,.81.81,0,0,0,5,5.8s0-.06,0,0V5.7H5l.09-.08a5.2,5.2,0,0,1,.62-.32l.35-.15.13-.09a.93.93,0,0,0,.28-.49V4.36c0-.09-.19-.17-1.06-.25a.75.75,0,0,1-.61-.57h0a2.28,2.28,0,0,1,.84-1H5.61l.22-.1a.63.63,0,0,0-.34-.07.88.88,0,0,0-.32.07s.17-.08.14-.08a2.3,2.3,0,0,0-.66.25V2.49a1.07,1.07,0,0,0-.41.32V2.74a.86.86,0,0,0-.2.18H4a2.67,2.67,0,0,0-1.48-.13h0a1.53,1.53,0,0,1-.27-.3h0a.83.83,0,0,1-.09-.16L2.11,2.2h0A2,2,0,0,1,2,1.48H2a.83.83,0,0,0-.3.39c0,.06,0,.09-.06.13h0V1.91h0a.86.86,0,0,0-.1.16.52.52,0,0,0-.06.16h0a4.13,4.13,0,0,0-.35,1.28.88.88,0,0,0,0,.23h0a3.19,3.19,0,0,0-.35.47A6.88,6.88,0,0,0,.05,6a4.14,4.14,0,0,1,.39-.68A6.33,6.33,0,0,0,0,7.65,7,7,0,0,1,.19,7a5.85,5.85,0,0,0,.53,2.7,6.47,6.47,0,0,0,2.52,2.86,5.85,5.85,0,0,0,1.39.7l.2.07H4.77a6.84,6.84,0,0,0,1.91.28c2.27,0,3-.9,3.09-1a1,1,0,0,0,.27-.36l.14-.07h.05a4.55,4.55,0,0,0,1-.6,2.27,2.27,0,0,0,.9-1.31.81.81,0,0,0,0-.61l.08-.11A5.41,5.41,0,0,0,13,6.94V6.79a2.86,2.86,0,0,0-.06-.58ZM4.81,3.51V3.6a0,0,0,0,1,0-.05Z"/></g></g></g></svg>