<svg width="36" height="29" viewBox="0 0 36 29" fill="none" xmlns="http://www.w3.org/2000/svg">
<path d="M29.7 25.375H19.8V8.68018C20.9486 8.17381 21.8306 7.19506 22.2401 5.99145L29.6651 3.48453C30.1365 3.32537 30.3902 2.81164 30.2321 2.33699L29.6601 0.618516C29.502 0.143867 28.9918 -0.111582 28.5204 0.0475781L21.8874 2.28658C21.1106 0.926641 19.6701 0 18 0C15.5149 0 13.5 2.02887 13.5 4.53125C13.5 4.72553 13.5332 4.91131 13.5568 5.09936L6.33488 7.53773C5.8635 7.69689 5.60981 8.21062 5.76787 8.68527L6.33994 10.4037C6.498 10.8784 7.00819 11.1338 7.47956 10.9747L15.4699 8.27689C15.6988 8.43379 15.9441 8.56689 16.2006 8.68018V28.0938C16.2006 28.5945 16.6033 29 17.1006 29H29.7006C30.1978 29 30.6006 28.5945 30.6006 28.0938V26.2812C30.6 25.7805 30.1972 25.375 29.7 25.375ZM35.9989 17.2188C35.9989 16.3023 36.0742 16.7243 31.2148 6.93791C30.222 4.93906 27.3791 4.9351 26.3846 6.93791C21.4841 16.8081 21.6011 16.3312 21.6011 17.2188H21.6C21.6 19.7211 24.8237 21.75 28.8 21.75C32.7763 21.75 36 19.7211 36 17.2188H35.9989ZM24.75 16.3125L28.8 8.15625L32.85 16.3125H24.75ZM9.61481 14.1879C8.622 12.1891 5.77912 12.1851 4.78462 14.1879C-0.115875 24.0581 0.001125 23.5812 0.001125 24.4688H0C0 26.9711 3.22369 29 7.2 29C11.1763 29 14.4 26.9711 14.4 24.4688H14.3989C14.3989 23.5523 14.4742 23.9743 9.61481 14.1879ZM3.15 23.5625L7.2 15.4062L11.25 23.5625H3.15Z" fill="url(#paint0_linear_210_2944)"/>
<defs>
<linearGradient id="paint0_linear_210_2944" x1="18" y1="0" x2="18" y2="29" gradientUnits="userSpaceOnUse">
<stop stop-color="#FD3824"/>
<stop offset="1" stop-color="#E40201"/>
</linearGradient>
</defs>
</svg>
