<svg id="Layer_1" data-name="Layer 1" xmlns="http://www.w3.org/2000/svg" viewBox="0 0 22.17 14.3"><defs><style>.cls-1{fill:#202a33;}</style></defs><path class="cls-1" d="M1,1.39a.39.39,0,0,1-.4.42.39.39,0,0,1-.36-.42A.4.4,0,0,1,.66,1,.38.38,0,0,1,1,1.39ZM.46,13.83V4.32H.85v9.51Z"/><path class="cls-1" d="M1.1,14.08H.21v-10H1.1Zm-.47-12A.63.63,0,0,1,0,1.39.64.64,0,0,1,.66.73a.63.63,0,0,1,.62.66A.64.64,0,0,1,.63,2.06Zm0-.83a.15.15,0,0,0-.14.16c0,.08,0,.17.11.17s.15,0,.15-.17C.78,1.37.77,1.23.66,1.23Z"/><path class="cls-1" d="M.87,13.85H.43V4.29H.87Zm-.39,0H.82V4.34H.48Zm.15-12a.41.41,0,0,1-.38-.44A.42.42,0,0,1,.66,1a.4.4,0,0,1,.39.43A.41.41,0,0,1,.63,1.83ZM.66,1a.37.37,0,0,0-.36.39.35.35,0,0,0,.33.39A.36.36,0,0,0,1,1.39.36.36,0,0,0,.66,1Z"/><path class="cls-1" d="M1.12,14.1H.18V4h.94Zm-.49-12A.66.66,0,0,1,0,1.39.66.66,0,0,1,.66.71a.65.65,0,0,1,.64.68A.66.66,0,0,1,.63,2.08Zm0-.83a.13.13,0,0,0-.12.14c0,.07,0,.14.09.14s.13,0,.13-.14S.75,1.25.66,1.25Z"/><path class="cls-1" d="M13.82,7.05c0,4.8-2.66,7-5.58,7S2.85,11.67,2.85,7.25s2.5-7,5.6-7S13.82,2.67,13.82,7.05Zm-10.57.1c0,3.64,1.76,6.46,5,6.46s5.15-2.91,5.15-6.5C13.41,3.78,11.9.74,8.47.74S3.25,3.6,3.25,7.15Z"/><path class="cls-1" d="M8.24,14.28c-3.9,0-5.64-3.53-5.64-7C2.6,2.93,5,0,8.45,0s5.62,2.76,5.62,7C14.07,12.39,10.93,14.28,8.24,14.28ZM8.47,1c-3,0-5,2.42-5,6.16s1.87,6.21,4.76,6.21c3.38,0,4.9-3.14,4.9-6.25C13.16,4.15,11.93,1,8.47,1Z"/><path class="cls-1" d="M8.24,14.05a4.93,4.93,0,0,1-3.83-1.74A7.7,7.7,0,0,1,2.83,7.25,7.89,7.89,0,0,1,4.47,2a5.17,5.17,0,0,1,4-1.79h0A4.87,4.87,0,0,1,12.29,2a7.73,7.73,0,0,1,1.55,5.05,7.83,7.83,0,0,1-1.7,5.31A5.18,5.18,0,0,1,8.24,14.05ZM8.45.3h0A5.14,5.14,0,0,0,4.5,2.07,7.85,7.85,0,0,0,2.87,7.25a7.61,7.61,0,0,0,1.58,5A4.87,4.87,0,0,0,8.24,14a5.15,5.15,0,0,0,3.87-1.68A7.8,7.8,0,0,0,13.8,7.05a7.75,7.75,0,0,0-1.54-5A4.84,4.84,0,0,0,8.45.3ZM8.26,13.64a4.45,4.45,0,0,1-3.74-1.88,7.74,7.74,0,0,1-1.3-4.61A7.47,7.47,0,0,1,4.55,2.6,4.74,4.74,0,0,1,8.47.72a4.4,4.4,0,0,1,3.78,1.94,8,8,0,0,1,1.18,4.45,7.75,7.75,0,0,1-1.35,4.61A4.6,4.6,0,0,1,8.26,13.64ZM8.47.76A4.68,4.68,0,0,0,4.59,2.63,7.52,7.52,0,0,0,3.27,7.15a7.71,7.71,0,0,0,1.28,4.58,4.41,4.41,0,0,0,3.71,1.86A4.54,4.54,0,0,0,12,11.7a7.68,7.68,0,0,0,1.35-4.59,7.91,7.91,0,0,0-1.18-4.42A4.34,4.34,0,0,0,8.47.76Z"/><path class="cls-1" d="M8.24,14.3a5.23,5.23,0,0,1-4-1.82A8,8,0,0,1,2.58,7.25a8.13,8.13,0,0,1,1.7-5.37A5.41,5.41,0,0,1,8.45,0a5.1,5.1,0,0,1,4,1.84,8,8,0,0,1,1.61,5.21,8,8,0,0,1-1.76,5.47A5.43,5.43,0,0,1,8.24,14.3ZM8.47,1A4.42,4.42,0,0,0,4.79,2.78,7.26,7.26,0,0,0,3.52,7.15a7.57,7.57,0,0,0,1.23,4.44,4.2,4.2,0,0,0,3.51,1.75,4.32,4.32,0,0,0,3.58-1.79,7.44,7.44,0,0,0,1.3-4.44A7.69,7.69,0,0,0,12,2.83,4.08,4.08,0,0,0,8.47,1Z"/><path class="cls-1" d="M15.25,12.8a5.46,5.46,0,0,0,2.76.86,3.31,3.31,0,0,0,3.48-3.19c0-1.76-1.09-2.68-2.95-3.47-1.66-.71-3.15-1.47-3.15-3.36A3.39,3.39,0,0,1,19,.29a4.38,4.38,0,0,1,2.38.6l-.16.34A4.51,4.51,0,0,0,19,.69,3,3,0,0,0,15.83,3.6c0,1.71,1.32,2.28,3,3.09,2,1,3,1.83,3,3.69S20.47,14,17.93,14a5.37,5.37,0,0,1-2.86-.81Z"/><path class="cls-1" d="M17.93,14.26a5.52,5.52,0,0,1-3-.86l-.16-.12.38-.85.25.16a5.27,5.27,0,0,0,2.62.82,3.08,3.08,0,0,0,3.23-2.94c0-1.48-.78-2.38-2.8-3.24-1.74-.74-3.3-1.57-3.3-3.59A3.64,3.64,0,0,1,19,0a4.61,4.61,0,0,1,2.52.64l.17.12-.37.81-.25-.18A4.29,4.29,0,0,0,19,.94,2.75,2.75,0,0,0,16.08,3.6c0,1.49,1.14,2,2.72,2.79l.17.08c2.06,1,3.17,1.93,3.17,3.91C22.14,12.7,20.45,14.26,17.93,14.26Z"/><path class="cls-1" d="M17.93,14a5.4,5.4,0,0,1-2.87-.81v0l.19-.43h0a5.52,5.52,0,0,0,2.75.86,3.66,3.66,0,0,0,2.41-.88,3,3,0,0,0,1-2.29,2.92,2.92,0,0,0-.78-2.08A6,6,0,0,0,18.53,7c-1.73-.74-3.16-1.5-3.16-3.38A3.41,3.41,0,0,1,19,.27a4.4,4.4,0,0,1,2.39.6h0l-.18.38h0A4.44,4.44,0,0,0,19,.71,3,3,0,0,0,15.85,3.6c0,1.64,1.26,2.23,2.85,3l.17.08a7.38,7.38,0,0,1,2.27,1.52,3.1,3.1,0,0,1,.78,2.19,3.54,3.54,0,0,1-1,2.58A4.12,4.12,0,0,1,17.93,14Zm-2.83-.84a5.31,5.31,0,0,0,2.83.8,4.09,4.09,0,0,0,2.92-1.06,3.51,3.51,0,0,0,1-2.55c0-1.85-1-2.69-3-3.67l-.17-.08c-1.6-.76-2.87-1.36-2.87-3A3,3,0,0,1,19,.67a4.56,4.56,0,0,1,2.23.53l.14-.31A4.44,4.44,0,0,0,19,.31a3.38,3.38,0,0,0-3.63,3.33c0,1.85,1.42,2.61,3.14,3.34a6.11,6.11,0,0,1,2.18,1.38,3,3,0,0,1,.78,2.11,3,3,0,0,1-1.06,2.32,3.65,3.65,0,0,1-2.44.89,5.45,5.45,0,0,1-2.75-.85Z"/><path class="cls-1" d="M17.93,14.28a5.45,5.45,0,0,1-3-.87l-.16-.12.07-.19.32-.71.25.17a5.12,5.12,0,0,0,2.62.83,3.38,3.38,0,0,0,2.25-.82,2.74,2.74,0,0,0,1-2.1,2.66,2.66,0,0,0-.71-1.91,5.77,5.77,0,0,0-2.07-1.31c-1.75-.74-3.32-1.58-3.32-3.61A3.65,3.65,0,0,1,19,0a4.74,4.74,0,0,1,2.53.64l.17.12-.07.2-.3.66-.25-.17A4.14,4.14,0,0,0,19,1,2.73,2.73,0,0,0,16.1,3.6c0,1.48,1.14,2,2.71,2.77l.17.08A7.54,7.54,0,0,1,21.32,8a3.31,3.31,0,0,1,.85,2.36,3.8,3.8,0,0,1-1.12,2.76A4.32,4.32,0,0,1,17.93,14.28Z"/></svg>