<svg xmlns="http://www.w3.org/2000/svg" viewBox="0 0 11.65 14.05"><defs><style>.cls-1{fill:#202a33;fill-rule:evenodd;}</style></defs><g id="Layer_2" data-name="Layer 2"><g id="Layer_1-2" data-name="Layer 1"><path class="cls-1" d="M10.51,9.77a.87.87,0,0,1,.49.67,1.45,1.45,0,0,0,.38.83.44.44,0,0,1,.08.11.61.61,0,0,1-.23,1,6.19,6.19,0,0,1-.63.32,2.68,2.68,0,0,0-.82.64A2,2,0,0,1,8.66,14a1.11,1.11,0,0,1-1.27-.66.23.23,0,0,0-.22-.15,6.11,6.11,0,0,1-.86-.08,5.4,5.4,0,0,0-1.5.12.66.66,0,0,0-.46.26,1,1,0,0,1-1,.36,3,3,0,0,1-.93-.25,3.91,3.91,0,0,0-1.3-.34l-.51-.07A.62.62,0,0,1,0,12.55a.58.58,0,0,1,0-.18A2.81,2.81,0,0,0,.1,11.29a.73.73,0,0,1,.47-.91l.15,0c.42-.12.58-.49.84-.77a.09.09,0,0,0,0-.1,3.84,3.84,0,0,1,.45-2A9.89,9.89,0,0,1,3.27,5.59,3.12,3.12,0,0,0,4,3.35,6.18,6.18,0,0,1,4,1.48,1.74,1.74,0,0,1,5.62,0a3.49,3.49,0,0,1,1.07,0A1.79,1.79,0,0,1,8.1,1.55a6.73,6.73,0,0,1,.13,1.79,2.33,2.33,0,0,0,.46,1.57c.25.34.53.66.76,1a11.46,11.46,0,0,1,.84,1.33A3.35,3.35,0,0,1,10.51,9.77Zm-6.4,1.76a1.51,1.51,0,0,0,.82.75,2.66,2.66,0,0,0,2.38-.35.41.41,0,0,0,.19-.24c.08-.44.13-.89.19-1.34a1.28,1.28,0,0,1,.57-1,.79.79,0,0,0,.08-.13c.07-.26.21-.38.46-.34.52.08,1,.19,1.2.83A.33.33,0,0,0,10,9.23a1.37,1.37,0,0,0-.43-.33.37.37,0,0,1-.26-.44,2.84,2.84,0,0,0-.94-2.15H8.26A2.41,2.41,0,0,1,9,8.65c-.31,0-.31,0-.34-.15A6.91,6.91,0,0,0,8.1,6.91c-.21-.42-.4-.86-.57-1.3s-.28-.79-.41-1.17l-.42.28c-.14.08-.38.19-.56.3A.94.94,0,0,1,4.89,4.9a3.58,3.58,0,0,0-.39-.29,5.93,5.93,0,0,1-.6,2c-.12.28-.25.57-.38.85a4.84,4.84,0,0,0-.43,1.71,1.42,1.42,0,0,1-.26-1A3.15,3.15,0,0,1,3.21,7c.09-.15.15-.3.23-.44h0A5.07,5.07,0,0,0,2.62,8.1a1.44,1.44,0,0,0,.8,1.73,2.58,2.58,0,0,1,1,1C4.63,11.22,4.52,11.45,4.11,11.53ZM3.17,13.4c.4,0,.68-.08.84-.37a.76.76,0,0,0-.07-.84c-.1-.15-.23-.31-.35-.48L3,10.77c-.21-.31-.27-.47-.42-.69a.55.55,0,0,0-.77-.17.46.46,0,0,0-.17.17,1.22,1.22,0,0,1-.71.53c-.32.11-.4.29-.38.63a2.49,2.49,0,0,1,0,.77c-.15.56,0,.74.52.79a4.43,4.43,0,0,1,1.51.39,3.54,3.54,0,0,0,.64.25ZM8.45,9.77a1.14,1.14,0,0,0-.21.28,1.91,1.91,0,0,0-.14.52,6.17,6.17,0,0,1-.28,1.59,1.67,1.67,0,0,0-.08.32.85.85,0,0,0,.25.89.83.83,0,0,0,.94.09A2.43,2.43,0,0,0,9.56,13a3.18,3.18,0,0,1,1-.75A3.09,3.09,0,0,0,11,12a.27.27,0,0,0,.13-.37l0,0a2.2,2.2,0,0,0-.21-.32,1.21,1.21,0,0,1-.27-.57c0-.13-.07-.25-.11-.38a.52.52,0,0,0-.7-.21l-.07,0a2,2,0,0,1-.54.28.47.47,0,0,1-.58-.23,3.2,3.2,0,0,1-.17-.43ZM5.51,4.87a1.58,1.58,0,0,0,.31-.09c.29-.13.56-.29.84-.43a.42.42,0,0,0,.15-.11A.39.39,0,0,0,7,3.7a.36.36,0,0,0-.25-.18l-.78-.36A1,1,0,0,0,5,3.23l-.59.48a.26.26,0,0,0-.08.34,2.51,2.51,0,0,0,1.09.81Zm1-1.57.18.07A.18.18,0,0,0,7,3.24a1.86,1.86,0,0,0,.07-.7.71.71,0,0,0-.63-.66.75.75,0,0,0-.73.71c0,.34,0,.35.29.43a2,2,0,0,1,.11-.42.38.38,0,0,1,.28-.12.41.41,0,0,1,.24.19.7.7,0,0,1-.06.66Zm2.2,6.24A.48.48,0,0,0,9,10a.48.48,0,0,0,.52-.12l.1-.1a.23.23,0,0,0,.05-.33.1.1,0,0,0-.05,0,1.61,1.61,0,0,0-.43-.23c-.27-.07-.41.06-.41.37ZM5,3.07c.09-.07.24-.13.25-.2A.85.85,0,0,0,5,2.13a.35.35,0,0,0-.5,0,.27.27,0,0,0-.07.08,1.05,1.05,0,0,0,.08,1.27l.17-.13a.6.6,0,0,1-.14-.56c0-.08.11-.15.18-.22s.16.1.2.18A1.69,1.69,0,0,1,5,3.11Z"/><path class="cls-1" d="M6.44,6.19l.12.1a.87.87,0,0,0,1.18.2l.4-.23a.25.25,0,0,1,.17,0c-.39.2-.72.55-1.22.48a1.2,1.2,0,0,1-.69-.43Z"/></g></g></svg>