<svg xmlns="http://www.w3.org/2000/svg" viewBox="0 0 12.94 12.69"><defs><style>.cls-1{fill:#202a33;}</style></defs><g id="Layer_2" data-name="Layer 2"><g id="Layer_1-2" data-name="Layer 1"><path class="cls-1" d="M5.55,12.68H2.35A2.35,2.35,0,0,1,0,10.33v-8A2.35,2.35,0,0,1,2.35,0h3.2A.76.76,0,0,1,6.3.75V11.93A.76.76,0,0,1,5.55,12.68ZM2.35,1A1.38,1.38,0,0,0,1,2.35v8a1.38,1.38,0,0,0,1.38,1.38H5.29V1Z"/><path class="cls-1" d="M10.93,0H7.47a.28.28,0,0,0-.28.29V12.4a.28.28,0,0,0,.28.29h3.46a2,2,0,0,0,2-2V2A2,2,0,0,0,10.93,0Zm-.84,8.65A1.46,1.46,0,0,1,8.63,7.21a1.45,1.45,0,0,1,2.89,0h0a1.45,1.45,0,0,1-1.45,1.45Z"/><circle class="cls-1" cx="3.15" cy="3.75" r="1.44"/></g></g></svg>