<svg xmlns="http://www.w3.org/2000/svg" viewBox="0 0 13.85 10.73"><defs><style>.cls-1{fill:#202a33;}</style></defs><g id="Layer_2" data-name="Layer 2"><g id="Layer_1-2" data-name="Layer 1"><path id="logo" class="cls-1" d="M8.33,2.3a2.72,2.72,0,0,1,0,.57V6a2.51,2.51,0,0,0,1,.25A1.36,1.36,0,0,0,10,6.12a1.39,1.39,0,0,0,.52-.5,2.24,2.24,0,0,0,.28-.76,4.15,4.15,0,0,0,0-.93,3.74,3.74,0,0,0-.3-1.4,2.3,2.3,0,0,0-.47-.65,2.63,2.63,0,0,0-.56-.49A7.86,7.86,0,0,0,8,.75L7,.44C6.38.27,5.79.11,5.18,0V10l2.27.71V2.3a.68.68,0,0,1,.14-.46.26.26,0,0,1,.26-.1.66.66,0,0,1,.27.12A.73.73,0,0,1,8.33,2.3ZM2.41,8.23,4.75,7.4V6.05l-2.95,1c-.24.09-.48.16-.72.26a3.91,3.91,0,0,0-.78.42A.66.66,0,0,0,0,8.06a.47.47,0,0,0,0,.37,1,1,0,0,0,.28.36A2.38,2.38,0,0,0,1,9.13a7.67,7.67,0,0,0,2.47.37,7.46,7.46,0,0,0,1.24-.13V8.19l-1,.36-.39.12a3.05,3.05,0,0,1-.6.06,1.71,1.71,0,0,1-.55-.09.26.26,0,0,1-.15-.12.14.14,0,0,1,0-.16.79.79,0,0,1,.3-.16Zm11.26-.78A1.82,1.82,0,0,0,13,7.07l-.41-.14a7.24,7.24,0,0,0-2.17-.34,4.93,4.93,0,0,0-.67,0A8.22,8.22,0,0,0,7.88,7V8.39l2.45-.86a2.74,2.74,0,0,1,.85-.13,2,2,0,0,1,.54.08.24.24,0,0,1,.15.13.15.15,0,0,1-.08.18,1.24,1.24,0,0,1-.45.21L7.9,9.22v1.33L12.38,9a6.22,6.22,0,0,0,.71-.29,2,2,0,0,0,.61-.43.56.56,0,0,0,.15-.37A.64.64,0,0,0,13.67,7.45Z"/></g></g></svg>