<svg width="104" height="20" viewBox="0 0 104 20" fill="none" xmlns="http://www.w3.org/2000/svg">
<path d="M103.424 1.05273H84.1475V19.4738H103.424V1.05273Z" fill="#13B57A"/>
<path d="M19.8931 0.842041H0.67041V19.421H19.8931V0.842041Z" fill="#13B57A"/>
<path d="M40.7222 0.842041H21.4995V19.421H40.7222V0.842041Z" fill="#13B57A"/>
<path d="M61.4976 0.842041H42.2749V19.421H61.4976V0.842041Z" fill="#13B57A"/>
<path d="M82.3267 0.842041H63.104V19.421H82.3267V0.842041Z" fill="#13B57A"/>
<path d="M10.2545 13.5789L13.1995 12.8421L14.431 16.5263L10.2545 13.5789ZM17.0012 8.78947H11.8609L10.2545 4L8.64815 8.78947H3.50781L7.68434 11.7368L6.07798 16.5263L10.2545 13.5789L12.8247 11.7368L17.0012 8.78947Z" fill="white"/>
<path d="M31.0841 13.5789L34.0291 12.8421L35.2606 16.5263L31.0841 13.5789ZM37.8308 8.78947H32.6904L31.0841 4L29.4777 8.78947H24.3374L28.5139 11.7368L26.9076 16.5263L31.0841 13.5789L33.6543 11.7368L37.8308 8.78947Z" fill="white"/>
<path d="M51.913 13.5789L54.858 12.8421L56.0896 16.5263L51.913 13.5789ZM58.6062 8.78947H53.4658L51.8595 4L50.2531 8.78947H45.1128L49.2893 11.7368L47.683 16.5263L51.8595 13.5789L54.4297 11.7368L58.6062 8.78947Z" fill="white"/>
<path d="M72.6886 13.5789L75.6336 12.8421L76.8651 16.5263L72.6886 13.5789ZM79.4352 8.78947H74.2949L72.6886 4L71.0822 8.78947H65.9419L70.1184 11.7368L68.5121 16.5263L72.6886 13.5789L75.2587 11.7368L79.4352 8.78947Z" fill="white"/>
<path d="M93.5177 13.5789L96.4627 12.8421L97.6942 16.5263L93.5177 13.5789ZM100.264 8.78947H95.1241L93.5177 4L91.9113 8.78947H86.771L90.9475 11.7368L89.3412 16.5263L93.5177 13.5789L96.0879 11.7368L100.264 8.78947Z" fill="white"/>
</svg>
