<svg xmlns="http://www.w3.org/2000/svg" viewBox="0 0 14.3 14.3"><defs><style>.cls-1{fill:#202a33;}.cls-2{fill:#fff;}</style></defs><g id="Layer_2" data-name="Layer 2"><g id="Layer_1-2" data-name="Layer 1"><rect class="cls-1" width="14.3" height="14.3" rx="2.86"/><path class="cls-2" d="M3.17,6.53a.6.6,0,0,0-.61-.6H2.28V7.12h.28a.61.61,0,0,0,.61-.59M4.5,8.9H3.42L2.56,7.71H2.28V8.9H1.33V5.34H2.69A1.32,1.32,0,0,1,4.11,6.53a1.16,1.16,0,0,1-.62,1l1,1.4"/><path class="cls-2" d="M5.57,6.74c-.25,0-.46.34-.46.76s.21.77.46.77S6,7.93,6,7.5s-.22-.76-.47-.76M7,7.5A1.47,1.47,0,1,1,5.55,6.05h0A1.47,1.47,0,0,1,7,7.5H7M9.27,6.11l-1.1,1.1V6.11h-1V8.9h1V7.77L9.31,8.9h1.2L9.08,7.45l1.2-1.21V7.9a1,1,0,0,0,1,1.07h.17a1.28,1.28,0,0,0,1-.43l.43.37H13V6.11h-.95V7.92a.53.53,0,0,1-.49.3c-.24,0-.34-.14-.34-.58V6.11Z"/></g></g></svg>