<?xml version="1.0" encoding="utf-8"?>
<!-- Generator: Adobe Illustrator 26.3.1, SVG Export Plug-In . SVG Version: 6.00 Build 0)  -->
<svg version="1.1" id="Layer_1" xmlns="http://www.w3.org/2000/svg" xmlns:xlink="http://www.w3.org/1999/xlink" x="0px" y="0px"
	 width="20px" height="20px" viewBox="0 0 20 20" style="enable-background:new 0 0 20 20;" xml:space="preserve">
<style type="text/css">
	.st0{fill:#006ADE;}
</style>
<path class="st0" d="M10,0C4.5,0,0,4.5,0,10s4.5,10,10,10s10-4.5,10-10S15.5,0,10,0z M13.8,10.9h-2.8v2.8c0,0.5-0.4,0.9-0.9,0.9
	c-0.6,0-1-0.4-1-0.9v-2.8H6.2c-0.5,0-0.9-0.4-0.9-0.9c0-0.5,0.4-0.9,0.9-0.9h2.8V6.2c0-0.5,0.4-0.9,0.9-0.9s0.9,0.4,0.9,0.9v2.8h2.8
	c0.5,0,0.9,0.4,0.9,0.9C14.7,10.5,14.3,10.9,13.8,10.9z"/>
</svg>
