<svg id="Layer_1" data-name="Layer 1" xmlns="http://www.w3.org/2000/svg" viewBox="0 0 25.86 20.02"><defs><style>.cls-1{fill:none;}.cls-2{fill:#818181;}</style></defs><path class="cls-1" d="M.86,2.49"/><path class="cls-2" d="M12,11.12h-.14a2,2,0,1,0,1.86,2V13l3.53-5.06"/><path class="cls-2" d="M22.2,19.94l-.34-.26a11.1,11.1,0,0,0,2.28-6.75,11.21,11.21,0,0,0-22.42,0A11.1,11.1,0,0,0,4,19.68l-.34.26a11.51,11.51,0,0,1-2.37-7,11.64,11.64,0,0,1,23.28,0A11.51,11.51,0,0,1,22.2,19.94Z"/><path class="cls-2" d="M1.51,12.93A11.43,11.43,0,1,1,22,19.81h1.58a12.58,12.58,0,0,0,2-6.88,12.72,12.72,0,1,0-23.4,6.88H3.83A11.36,11.36,0,0,1,1.51,12.93Z"/><path class="cls-2" d="M23.61,20H22a.21.21,0,0,1-.19-.11.21.21,0,0,1,0-.23,11.1,11.1,0,0,0,2.28-6.75,11.21,11.21,0,0,0-22.42,0A11.1,11.1,0,0,0,4,19.68a.23.23,0,0,1,0,.23.23.23,0,0,1-.2.11H2.25a.21.21,0,0,1-.18-.09,12.93,12.93,0,1,1,21.73,0A.23.23,0,0,1,23.61,20Zm-1.15-.43h1a12.51,12.51,0,1,0-21.13,0h1a11.44,11.44,0,0,1-2.12-6.66,11.64,11.64,0,0,1,23.28,0A11.5,11.5,0,0,1,22.46,19.59Z"/></svg>