<svg width="66" height="16" viewBox="0 0 66 16" fill="none" xmlns="http://www.w3.org/2000/svg">
<path d="M17.2176 5.68127H23.8263V6.89866H21.2176V13.8551H19.7684V6.89866H17.1597V5.68127H17.2176ZM23.5365 7.94213H24.7538V9.10155C24.8118 8.92764 24.8698 8.81169 24.9857 8.63778C25.1017 8.46387 25.2176 8.34793 25.3915 8.23199C25.5654 8.11605 25.7393 8.00011 25.9132 7.94213C26.0872 7.88416 26.319 7.82619 26.493 7.82619C26.6669 7.82619 26.7248 7.82619 26.7828 7.82619C26.8408 7.82619 26.8988 7.82619 26.9567 7.82619V9.10155C26.8408 9.10155 26.7828 9.10155 26.6669 9.04358C26.5509 9.04358 26.493 9.04358 26.377 9.04358C26.1451 9.04358 25.9712 9.10155 25.7393 9.15952C25.5654 9.27546 25.3915 9.3914 25.2176 9.56531C25.0437 9.73923 24.9857 9.97111 24.8698 10.203C24.8698 10.4349 24.8698 10.7247 24.8698 11.0726V13.9131H23.5365V7.94213ZM33.0437 13.8551H31.7683V13.0436C31.5944 13.3334 31.3625 13.5653 31.0726 13.7392C30.7828 13.9131 30.435 14.0291 30.0871 14.0291C29.3335 14.0291 28.7538 13.8552 28.406 13.4494C28.0582 13.0436 27.8843 12.4639 27.8843 11.7102V7.94213H29.2176V11.5943C29.2176 12.116 29.3335 12.4639 29.5074 12.6957C29.6813 12.9276 29.9712 13.0436 30.319 13.0436C30.6089 13.0436 30.8408 12.9856 31.0147 12.9276C31.1886 12.8696 31.3625 12.7537 31.4784 12.5798C31.5944 12.4639 31.6524 12.2899 31.7103 12.0581C31.7683 11.8841 31.7683 11.6523 31.7683 11.4204V8.0001H33.1016V13.8551H33.0437ZM35.2465 12.0001C35.3045 12.4059 35.4205 12.6378 35.7103 12.8117C35.9422 12.9856 36.29 13.0436 36.6378 13.0436C36.7538 13.0436 36.9277 13.0436 37.0436 13.0436C37.2175 13.0436 37.3335 12.9856 37.5074 12.9276C37.6233 12.8696 37.7393 12.8117 37.8552 12.6957C37.9712 12.5798 37.9712 12.4639 37.9712 12.2899C37.9712 12.116 37.9132 12.0001 37.7973 11.8841C37.6813 11.7682 37.5074 11.7102 37.3335 11.6523C37.1596 11.5943 36.9277 11.5363 36.6958 11.4783C36.4639 11.4204 36.232 11.3624 36.0002 11.3044C35.7683 11.2465 35.5364 11.1885 35.3045 11.1305C35.0726 11.0726 34.8987 10.9566 34.7248 10.8407C34.5509 10.7247 34.377 10.5508 34.319 10.3189C34.2031 10.145 34.1451 9.85517 34.1451 9.56531C34.1451 9.21749 34.2031 8.98561 34.377 8.75372C34.5509 8.52184 34.7248 8.34793 34.9567 8.23199C35.1886 8.11605 35.4784 8.00011 35.7683 7.94213C36.0581 7.88416 36.348 7.88416 36.6378 7.88416C36.9277 7.88416 37.2175 7.94213 37.5074 8.0001C37.7973 8.05807 38.0291 8.17402 38.261 8.28996C38.4929 8.46387 38.6668 8.63778 38.8407 8.86967C39.0146 9.10155 39.0726 9.3914 39.1306 9.73923H37.7393C37.6813 9.44937 37.5074 9.21749 37.3335 9.10155C37.1016 8.98561 36.8697 8.92764 36.5799 8.92764C36.4639 8.92764 36.406 8.92764 36.232 8.92764C36.1161 8.92764 36.0002 8.98561 35.8842 8.98561C35.7683 9.04358 35.6523 9.10155 35.5944 9.15952C35.5364 9.21749 35.4784 9.33343 35.4784 9.44937C35.4784 9.62329 35.5364 9.73923 35.6523 9.85517C35.7683 9.97111 35.8842 10.0291 36.1161 10.0871C36.29 10.145 36.5219 10.203 36.7538 10.261C36.9857 10.3189 37.2175 10.3769 37.4494 10.4349C37.6813 10.4928 37.9132 10.5508 38.1451 10.6088C38.377 10.6668 38.5509 10.7827 38.7828 10.8986C38.9567 11.0146 39.1306 11.1885 39.2465 11.4204C39.3625 11.5943 39.4204 11.8841 39.4204 12.174C39.4204 12.5218 39.3625 12.8117 39.1886 13.0436C39.0146 13.2754 38.8407 13.5073 38.5509 13.6233C38.319 13.7972 38.0291 13.9131 37.6813 13.9711C37.3915 14.0291 37.0436 14.087 36.7538 14.087C36.406 14.087 36.0581 14.0291 35.7103 13.9711C35.4205 13.9131 35.1306 13.7392 34.8987 13.5653C34.6668 13.3914 34.4929 13.1595 34.319 12.9276C34.2031 12.6957 34.0871 12.3479 34.0871 12.0001H35.2465ZM39.5364 7.94213H40.5219V6.14504H41.8552V7.94213H43.0146V8.92764H41.8552V12.116C41.8552 12.232 41.8552 12.3479 41.8552 12.4639C41.8552 12.5798 41.9132 12.6378 41.9132 12.6957C41.9711 12.7537 42.0291 12.8117 42.0871 12.8696C42.1451 12.9276 42.261 12.9276 42.4349 12.9276C42.5509 12.9276 42.6088 12.9276 42.7248 12.9276C42.8407 12.9276 42.8987 12.9276 43.0146 12.8696V13.8551C42.8407 13.8551 42.7248 13.9131 42.6088 13.9131C42.4929 13.9131 42.319 13.9131 42.203 13.9131C41.8552 13.9131 41.5654 13.8551 41.3914 13.7972C41.1596 13.7392 41.0436 13.6233 40.9277 13.5073C40.8117 13.3914 40.7538 13.2175 40.6958 13.0436C40.6378 12.8696 40.6378 12.6378 40.6378 12.4059V8.92764H39.6523V7.94213H39.5364ZM43.9422 7.94213H45.1595V8.75372C45.3335 8.4059 45.6233 8.17402 45.9132 8.0001C46.261 7.82619 46.6088 7.76822 46.9566 7.76822C47.4204 7.76822 47.8262 7.82619 48.174 8.0001C48.5218 8.17402 48.8117 8.4059 49.0436 8.69575C49.2755 8.98561 49.4494 9.33343 49.5653 9.68126C49.6813 10.0871 49.7392 10.4928 49.7392 10.8986C49.7392 11.3044 49.6813 11.7102 49.5653 12.0581C49.4494 12.4059 49.3334 12.7537 49.1016 13.0436C48.8697 13.3334 48.6378 13.5653 48.29 13.7392C47.9421 13.9131 47.5943 13.9711 47.1305 13.9711C46.9566 13.9711 46.7248 13.9711 46.5508 13.9131C46.3769 13.8552 46.203 13.7972 46.0291 13.7392C45.8552 13.6812 45.6813 13.5653 45.5653 13.4494C45.3914 13.3334 45.2755 13.2175 45.2175 13.0436V16.0001H43.8842V7.94213H43.9422ZM48.5218 10.8986C48.5218 10.6088 48.4639 10.3769 48.4059 10.145C48.3479 9.91314 48.232 9.68126 48.116 9.44937C48.0001 9.27546 47.8262 9.10155 47.5943 8.98561C47.3624 8.86967 47.1305 8.8117 46.8987 8.8117C46.319 8.8117 45.9132 8.98561 45.6813 9.3914C45.3914 9.7972 45.2755 10.261 45.2755 10.8986C45.2755 11.1885 45.3335 11.4783 45.3914 11.7102C45.4494 11.9421 45.5653 12.174 45.7392 12.3479C45.9132 12.5218 46.0871 12.6957 46.261 12.8117C46.4349 12.9276 46.7247 12.9856 46.9566 12.9856C47.2465 12.9856 47.4784 12.9276 47.7103 12.8117C47.9421 12.6957 48.1161 12.5218 48.232 12.3479C48.3479 12.174 48.4639 11.9421 48.5218 11.7102C48.4639 11.4204 48.5218 11.1885 48.5218 10.8986ZM50.8407 5.68127H52.116V6.89866H50.7827V5.68127H50.8407ZM50.8407 7.94213H52.116V13.8551H50.7827V7.94213H50.8407ZM53.2754 5.68127H54.6088V13.8551H53.2754V5.68127ZM58.6088 14.0291C58.145 14.0291 57.7392 13.9711 57.3334 13.7972C56.9856 13.6233 56.6377 13.4494 56.4059 13.1595C56.174 12.8696 55.9421 12.5798 55.8262 12.174C55.7102 11.7682 55.6522 11.3624 55.6522 10.8986C55.6522 10.4349 55.7102 10.0291 55.8262 9.62329C55.9421 9.21749 56.174 8.92764 56.4059 8.63778C56.6377 8.34793 56.9856 8.17402 57.3334 8.0001C57.6812 7.82619 58.145 7.76822 58.6088 7.76822C59.0725 7.76822 59.4783 7.82619 59.8841 8.0001C60.2319 8.17402 60.5798 8.34793 60.8116 8.63778C61.0435 8.92764 61.2754 9.21749 61.3914 9.62329C61.5073 10.0291 61.5653 10.4349 61.5653 10.8986C61.5653 11.3624 61.5073 11.7682 61.3914 12.174C61.2754 12.5798 61.0435 12.8696 60.8116 13.1595C60.5798 13.4494 60.2319 13.6233 59.8841 13.7972C59.4783 13.9711 59.0725 14.0291 58.6088 14.0291ZM58.6088 12.9856C58.8986 12.9856 59.1305 12.9276 59.3624 12.8117C59.5943 12.6957 59.7682 12.5218 59.8841 12.3479C60 12.174 60.116 11.9421 60.174 11.6523C60.2319 11.4204 60.2899 11.1305 60.2899 10.8986C60.2899 10.6668 60.2319 10.3769 60.174 10.145C60.116 9.91314 60 9.68126 59.8841 9.44937C59.7682 9.27546 59.5943 9.10155 59.3624 8.98561C59.1305 8.86967 58.8986 8.8117 58.6088 8.8117C58.3189 8.8117 58.087 8.86967 57.8551 8.98561C57.6232 9.10155 57.4493 9.27546 57.3334 9.44937C57.2175 9.62329 57.1015 9.85517 57.0435 10.145C56.9856 10.3769 56.9276 10.6668 56.9276 10.8986C56.9276 11.1305 56.9856 11.4204 57.0435 11.6523C57.1015 11.8841 57.2175 12.116 57.3334 12.3479C57.4493 12.5218 57.6232 12.6957 57.8551 12.8117C58.087 12.9276 58.3189 12.9856 58.6088 12.9856ZM61.9711 7.94213H62.9566V6.14504H64.2899V7.94213H65.4493V8.92764H64.2899V12.116C64.2899 12.232 64.2899 12.3479 64.2899 12.4639C64.2899 12.5798 64.3479 12.6378 64.3479 12.6957C64.4058 12.7537 64.4638 12.8117 64.5218 12.8696C64.5797 12.9276 64.6957 12.9276 64.8696 12.9276C64.9855 12.9276 65.0435 12.9276 65.1595 12.9276C65.2754 12.9276 65.3334 12.9276 65.4493 12.8696V13.8551C65.2754 13.8551 65.1595 13.9131 65.0435 13.9131C64.9276 13.9131 64.7537 13.9131 64.6377 13.9131C64.2899 13.9131 64 13.8551 63.8261 13.7972C63.5942 13.7392 63.4783 13.6233 63.3044 13.5073C63.1884 13.3914 63.1305 13.2175 63.0725 13.0436C63.0145 12.8696 63.0145 12.6378 63.0145 12.4059V8.92764H61.9711V7.94213Z" fill="black"/>
<path d="M7.62076 0L5.81436 5.81194H0L4.74181 9.42958L2.93541 15.2415L7.62076 11.6239L12.3626 15.2415L10.5562 9.42958L15.2415 5.81194H9.42717L7.62076 0Z" fill="#13B57A"/>
</svg>
