<svg width="36" height="36" viewBox="0 0 36 36" fill="none" xmlns="http://www.w3.org/2000/svg">
<path d="M36 12.3751C36 19.2096 30.4595 24.75 23.625 24.75C22.8361 24.75 22.0648 24.6753 21.3169 24.5342L19.6285 26.4336C19.4702 26.6117 19.2759 26.7543 19.0585 26.8519C18.8412 26.9495 18.6055 27 18.3672 27H15.75V29.8125C15.75 30.7445 14.9945 31.5 14.0625 31.5H11.25V34.3125C11.25 35.2445 10.4945 36 9.5625 36H1.6875C0.755508 36 0 35.2445 0 34.3125V28.824C0 28.3764 0.17782 27.9472 0.494227 27.6307L11.8709 16.254C11.4685 15.0338 11.25 13.73 11.25 12.375C11.25 5.54048 16.7904 7.03132e-05 23.6249 6.71665e-10C30.4796 -7.03118e-05 36 5.52031 36 12.3751ZM23.625 9C23.625 10.864 25.136 12.375 27 12.375C28.864 12.375 30.375 10.864 30.375 9C30.375 7.13602 28.864 5.625 27 5.625C25.136 5.625 23.625 7.13602 23.625 9Z" fill="url(#paint0_linear_210_2950)"/>
<defs>
<linearGradient id="paint0_linear_210_2950" x1="18" y1="0" x2="18" y2="36" gradientUnits="userSpaceOnUse">
<stop stop-color="#FD3824"/>
<stop offset="1" stop-color="#E40201"/>
</linearGradient>
</defs>
</svg>
