<svg width="22" height="22" viewBox="0 0 22 22" fill="none" xmlns="http://www.w3.org/2000/svg">
<path d="M20 8.75H13.25V2C13.25 1.17172 12.5783 0.5 11.75 0.5H10.25C9.42172 0.5 8.75 1.17172 8.75 2V8.75H2C1.17172 8.75 0.5 9.42172 0.5 10.25V11.75C0.5 12.5783 1.17172 13.25 2 13.25H8.75V20C8.75 20.8283 9.42172 21.5 10.25 21.5H11.75C12.5783 21.5 13.25 20.8283 13.25 20V13.25H20C20.8283 13.25 21.5 12.5783 21.5 11.75V10.25C21.5 9.42172 20.8283 8.75 20 8.75Z" fill="url(#paint0_linear_227_1925)"/>
<defs>
<linearGradient id="paint0_linear_227_1925" x1="11" y1="0.5" x2="11" y2="21.5" gradientUnits="userSpaceOnUse">
<stop stop-color="#FD3824"/>
<stop offset="1" stop-color="#E40201"/>
</linearGradient>
</defs>
</svg>
