<svg width="422" height="266" viewBox="0 0 422 266" fill="none" xmlns="http://www.w3.org/2000/svg">
<path opacity="0.2" fill-rule="evenodd" clip-rule="evenodd" d="M246.945 264.055L265.891 238.123C265.956 237.993 266.086 237.928 266.15 237.928H405.39C405.519 237.928 405.584 237.993 405.714 238.123L421.675 264.055C422.065 264.703 421.87 265.935 421.351 265.935H247.205C246.75 266 246.556 264.639 246.945 264.055Z" fill="#231F20"/>
<path opacity="0.2" fill-rule="evenodd" clip-rule="evenodd" d="M63.0018 264.055L72.9939 238.123C73.0587 237.993 73.0587 237.928 73.1236 237.928H146.377C146.442 237.928 146.506 237.993 146.571 238.123L154.941 264.055C155.136 264.703 155.006 265.935 154.747 265.935H63.1316C62.8721 266 62.8072 264.639 63.0018 264.055Z" fill="#231F20"/>
<path opacity="0.2" fill-rule="evenodd" clip-rule="evenodd" d="M29.3268 254.525L68.7758 228.593C68.9704 228.463 69.1651 228.398 69.3597 228.398H358.933C359.193 228.398 359.387 228.463 359.582 228.593L392.802 254.525C393.581 255.173 393.127 256.405 392.153 256.405H29.9108C28.8726 256.47 28.4833 255.108 29.3268 254.525Z" fill="#231F20"/>
<path d="M387.871 205.319H34.1934V3.69535C34.1934 1.62077 35.8803 0 37.8917 0H384.108C386.184 0 387.806 1.6856 387.806 3.69535V205.319H387.871Z" fill="white"/>
<path d="M402.924 230.278H19.0756C8.56458 230.278 0 221.721 0 211.218V205.254H422V211.218C422 221.721 413.5 230.278 402.924 230.278Z" fill="#BCBEC0"/>
<path d="M377.49 10.2433H43.2773V196.048H377.49V10.2433Z" fill="#323233"/>
<path d="M72.9287 250.376C72.9287 253.877 75.7836 256.664 79.2224 256.664H138.396C142.289 256.664 145.403 253.488 145.403 249.663V129.272C145.403 125.382 142.224 122.271 138.396 122.271H79.9361C76.0431 122.271 72.9287 125.447 72.9287 129.272V213.941V250.376Z" fill="white"/>
<path d="M76.4971 246.292C76.4971 249.468 78.768 251.997 81.6228 251.997H136.644C139.499 251.997 141.77 249.403 141.77 246.292V132.643C141.77 129.467 139.499 126.938 136.644 126.938H127.171C126.457 126.938 125.938 127.587 125.938 128.3V128.624C125.938 130.569 124.511 131.671 122.759 131.671L94.5346 131.801C92.7827 131.801 91.4202 130.245 91.4202 128.3C91.4202 127.522 90.8362 126.938 90.1874 126.938H81.6877C78.8329 126.938 76.562 129.532 76.562 132.643V246.292H76.4971Z" fill="#323233"/>
<path d="M115.492 128.818H101.996C101.542 128.818 101.218 128.429 101.218 128.04C101.218 127.587 101.607 127.262 101.996 127.262H115.492C115.946 127.262 116.271 127.651 116.271 128.04C116.336 128.494 115.946 128.818 115.492 128.818Z" fill="#191F26"/>
<path d="M108.42 208.69C110.104 208.69 111.469 207.326 111.469 205.643C111.469 203.96 110.104 202.596 108.42 202.596C106.735 202.596 105.37 203.96 105.37 205.643C105.37 207.326 106.735 208.69 108.42 208.69Z" fill="#2875E5"/>
<path d="M117.892 198.835C117.503 198.835 117.179 198.771 116.854 198.576C114.389 197.15 111.599 196.437 108.744 196.437C106.149 196.437 102.84 197.215 100.634 198.317C99.5955 198.835 98.2978 198.447 97.7787 197.409C97.2597 196.372 97.649 195.075 98.6871 194.557C101.542 193.13 105.435 192.223 108.744 192.223C112.313 192.223 115.881 193.13 118.931 194.946C119.969 195.529 120.293 196.826 119.709 197.863C119.32 198.447 118.606 198.835 117.892 198.835Z" fill="#2875E5"/>
<path d="M125.419 191.51C125.03 191.51 124.705 191.445 124.381 191.25C119.644 188.527 114.194 187.101 108.679 187.101C103.618 187.101 97.3245 188.592 92.9773 190.732C91.9392 191.25 90.6415 190.861 90.1225 189.824C89.6034 188.787 89.9927 187.49 91.0308 186.972C95.962 184.508 102.904 182.887 108.614 182.887C114.843 182.887 121.007 184.508 126.457 187.62C127.495 188.203 127.82 189.5 127.236 190.537C126.911 191.121 126.198 191.51 125.419 191.51Z" fill="#2875E5"/>
<path d="M131.842 183.082C131.453 183.082 131.129 183.017 130.804 182.822C124.121 178.997 116.465 176.923 108.679 176.923C101.542 176.923 92.7179 178.997 86.6189 182.044C85.5808 182.563 84.2831 182.174 83.7641 181.137C83.245 180.099 83.6343 178.803 84.6724 178.284C91.4203 174.913 100.828 172.709 108.679 172.709C117.179 172.709 125.549 174.913 132.945 179.127C133.984 179.71 134.308 181.007 133.724 182.044C133.27 182.693 132.556 183.082 131.842 183.082Z" fill="#2875E5"/>
<path d="M399.291 242.467H273.223C269.914 242.467 267.188 239.744 267.188 236.437V88.04C267.188 84.7336 269.914 82.0107 273.223 82.0107H399.355C402.665 82.0107 405.39 84.7336 405.39 88.04V236.437C405.325 239.744 402.665 242.467 399.291 242.467Z" fill="white"/>
<path d="M392.348 227.62H280.165C278.154 227.62 276.467 226 276.467 223.925V93.7452C276.467 91.7354 278.089 90.0498 280.165 90.0498H392.348C394.36 90.0498 396.046 91.6706 396.046 93.7452V223.925C396.046 225.935 394.36 227.62 392.348 227.62Z" fill="#323233"/>
<path d="M336.029 239.549C338.645 239.549 340.766 237.43 340.766 234.817C340.766 232.203 338.645 230.084 336.029 230.084C333.414 230.084 331.293 232.203 331.293 234.817C331.293 237.43 333.414 239.549 336.029 239.549Z" fill="#191F26"/>
<path d="M375.673 185.999H301.447C298.916 185.999 296.84 183.924 296.84 181.396V132.579C296.84 130.05 298.916 127.976 301.447 127.976H375.673C378.203 127.976 380.28 130.05 380.28 132.579V181.396C380.28 183.989 378.203 185.999 375.673 185.999ZM301.447 130.634C300.344 130.634 299.435 131.541 299.435 132.643V181.461C299.435 182.563 300.344 183.471 301.447 183.471H375.673C376.776 183.471 377.684 182.563 377.684 181.461V132.643C377.684 131.541 376.776 130.634 375.673 130.634H301.447Z" fill="white"/>
<path d="M368.6 177.312H308.584C308.065 177.312 307.61 176.858 307.61 176.339V176.274C307.61 175.756 308.065 175.302 308.584 175.302H368.6C369.12 175.302 369.574 175.756 369.574 176.274V176.339C369.509 176.858 369.12 177.312 368.6 177.312Z" fill="white"/>
<path d="M324.091 178.933C325.525 178.933 326.687 177.772 326.687 176.339C326.687 174.907 325.525 173.746 324.091 173.746C322.658 173.746 321.496 174.907 321.496 176.339C321.496 177.772 322.658 178.933 324.091 178.933Z" fill="#2875E5"/>
<path d="M349.46 150.99L339.922 145.48L330.385 139.969C328.633 138.932 326.427 140.229 326.427 142.238V153.26V164.281C326.427 166.29 328.633 167.587 330.385 166.55L339.922 161.039L349.46 155.529C351.212 154.491 351.212 151.963 349.46 150.99Z" fill="#2875E5"/>
<path d="M119.709 58.0883L204.252 23.5984L288.795 58.0883C288.795 58.0883 293.012 89.9849 271.082 137.052C246.815 189.111 204.252 212.45 204.252 212.45C204.252 212.45 170.383 195.14 136.903 136.144C116.79 100.747 119.709 58.0883 119.709 58.0883Z" fill="#2875E5"/>
<path d="M204.317 213.552C204.122 213.552 203.992 213.487 203.862 213.422C203.538 213.228 169.28 195.27 136.06 136.663C116.076 101.395 118.736 58.4124 118.736 58.0234C118.736 57.6345 118.995 57.2455 119.385 57.1158L203.927 22.6259C204.187 22.4963 204.446 22.4963 204.706 22.6259L289.249 57.1158C289.573 57.2455 289.833 57.5696 289.897 57.9586C289.962 58.2828 290.936 66.2569 289.249 80.0659C287.691 92.7727 283.474 113.065 272.055 137.506C247.918 189.305 205.225 213.163 204.771 213.422C204.641 213.487 204.446 213.552 204.317 213.552ZM120.747 58.8014C120.488 64.312 119.449 103.275 137.811 135.626C168.566 189.759 199.969 208.884 204.252 211.283C209.053 208.43 247.723 184.767 270.108 136.598C281.333 112.481 285.55 92.4485 287.107 79.8714C288.535 68.3963 288.016 60.876 287.821 58.8014L204.252 24.7653L120.747 58.8014Z" fill="#2875E5"/>
<path d="M204.317 196.761L203.993 196.566C203.733 196.437 175.12 181.396 147.35 132.449C130.675 103.016 132.881 67.1645 132.881 66.7755V66.3217L204.252 37.2128L275.624 66.3217L275.689 66.7107C275.753 66.97 276.597 73.5827 275.169 85.1226C273.872 95.7548 270.368 112.676 260.83 133.097C240.652 176.339 205.031 196.307 204.642 196.502L204.317 196.761ZM134.308 67.359C134.114 71.5082 133.075 104.507 148.582 131.801C174.536 177.571 201.073 193.39 204.317 195.14C207.951 193.001 240.652 173.163 259.533 132.579C268.941 112.351 272.444 95.6252 273.742 85.0578C274.975 75.2683 274.456 68.9149 274.326 67.2942L204.252 38.7039L134.308 67.359Z" fill="white"/>
<path d="M167.593 93.0968L173.822 114.815L179.985 93.0968H189.199L178.234 124.929H169.539L158.314 93.0968H167.593Z" fill="white"/>
<path d="M191.6 124.929V93.0968H205.355C206.912 93.0968 208.339 93.421 209.637 94.0693C210.935 94.7176 212.103 95.5604 213.076 96.5977C214.049 97.6349 214.763 98.8667 215.282 100.163C215.801 101.46 216.061 102.821 216.061 104.183C216.061 106.063 215.606 107.813 214.763 109.499C213.855 111.185 212.622 112.546 211.065 113.583C209.507 114.621 207.691 115.204 205.55 115.204H200.359V124.993H191.6V124.929ZM200.359 107.489H204.966C205.355 107.489 205.679 107.36 206.004 107.165C206.328 106.971 206.588 106.582 206.847 106.063C207.042 105.544 207.172 104.896 207.172 104.053C207.172 103.146 207.042 102.432 206.782 101.979C206.523 101.46 206.198 101.136 205.809 100.941C205.42 100.747 205.095 100.682 204.706 100.682H200.294V107.489H200.359Z" fill="white"/>
<path d="M228.324 109.24V124.864H219.564V93.032H226.377L239.159 109.24V93.032H247.918V124.864H240.976L228.324 109.24Z" fill="white"/>
</svg>
