<svg width="461" height="370" viewBox="0 0 461 370" fill="none" xmlns="http://www.w3.org/2000/svg">
<g clip-path="url(#clip0_46_39)">
<path d="M175.816 248.153L29 344" stroke="#3F4853" stroke-width="45.6759" stroke-miterlimit="10" stroke-linecap="round" stroke-linejoin="round"/>
<path d="M209.63 112.085L289.822 79.436L370.014 112.085C370.014 112.085 373.978 142.295 353.234 186.893C330.213 236.204 289.822 258.335 289.822 258.335C289.822 258.335 257.695 241.926 225.904 186.052C206.932 152.561 209.63 112.085 209.63 112.085Z" fill="#1D4C93"/>
<path d="M222.784 120.416L289.822 93.068L356.86 120.416C356.86 120.416 360.233 145.661 342.777 182.938C323.552 224.171 289.822 242.684 289.822 242.684C289.822 242.684 262.923 228.967 236.36 182.265C220.507 154.16 222.784 120.416 222.784 120.416Z" stroke="white" stroke-width="2.05" stroke-miterlimit="10"/>
<path d="M255.081 145.24L260.983 165.856L266.802 145.24H275.487L265.031 175.365H256.767L246.227 145.24H255.081Z" fill="white"/>
<path d="M277.764 175.365V145.24H290.75C292.183 145.24 293.617 145.577 294.797 146.166C296.062 146.755 297.158 147.596 298.001 148.606C298.929 149.616 299.604 150.71 300.11 151.972C300.616 153.234 300.868 154.496 300.868 155.758C300.868 157.526 300.447 159.209 299.604 160.807C298.76 162.406 297.58 163.668 296.146 164.678C294.629 165.688 292.942 166.193 290.918 166.193H285.943V175.449H277.764V175.365ZM286.112 158.872H290.497C290.834 158.872 291.171 158.788 291.509 158.535C291.846 158.367 292.099 158.03 292.267 157.526C292.52 157.021 292.605 156.432 292.605 155.59C292.605 154.749 292.52 154.075 292.267 153.655C292.014 153.15 291.761 152.897 291.34 152.645C291.003 152.477 290.665 152.393 290.328 152.393H286.196V158.872H286.112Z" fill="white"/>
<path d="M312.589 160.555V175.365H304.326V145.24H310.819L322.961 160.555V145.24H331.225V175.365H324.648L312.589 160.555Z" fill="white"/>
<path d="M289.738 294.267C360.106 294.267 417.151 237.34 417.151 167.118C417.151 96.8966 360.106 39.9704 289.738 39.9704C219.369 39.9704 162.324 96.8966 162.324 167.118C162.324 237.34 219.369 294.267 289.738 294.267Z" stroke="#5D636C" stroke-width="24.7411" stroke-miterlimit="10" stroke-linecap="round" stroke-linejoin="round"/>
<path opacity="0.34" d="M289.705 283.159C354.159 283.159 406.409 231.018 406.409 166.698C406.409 102.378 354.159 50.2365 289.705 50.2365C225.25 50.2365 173 102.378 173 166.698C173 231.018 225.25 283.159 289.705 283.159Z" fill="url(#paint0_radial_46_39)"/>
<path d="M254.827 44.7669C187.115 63.9527 147.904 134.301 167.215 201.872" stroke="white" stroke-width="4" stroke-miterlimit="10" stroke-linecap="round" stroke-linejoin="round"/>
<path d="M271.439 44.5144C273.442 44.5144 275.065 42.8944 275.065 40.8961C275.065 38.8977 273.442 37.2777 271.439 37.2777C269.437 37.2777 267.813 38.8977 267.813 40.8961C267.813 42.8944 269.437 44.5144 271.439 44.5144Z" fill="white"/>
<path d="M440.762 168.128C440.762 84.9056 373.134 17.4187 289.738 17.4187C206.341 17.4187 138.713 84.9056 138.713 168.128" stroke="white" stroke-width="0.9857" stroke-miterlimit="10" stroke-linecap="round" stroke-linejoin="round"/>
<path d="M440.762 180.161C444.022 180.161 446.665 177.524 446.665 174.271C446.665 171.018 444.022 168.381 440.762 168.381C437.502 168.381 434.859 171.018 434.859 174.271C434.859 177.524 437.502 180.161 440.762 180.161Z" stroke="white" stroke-width="0.9857" stroke-miterlimit="10" stroke-linecap="round" stroke-linejoin="round"/>
<path d="M414.2 256.989C417.46 256.989 420.103 254.352 420.103 251.098C420.103 247.845 417.46 245.208 414.2 245.208C410.94 245.208 408.297 247.845 408.297 251.098C408.297 254.352 410.94 256.989 414.2 256.989Z" stroke="white" stroke-width="0.9857" stroke-miterlimit="10" stroke-linecap="round" stroke-linejoin="round"/>
<path d="M431.908 74.6395C400.624 29.7885 348.596 0.420746 289.653 0.420746C237.794 0.420746 191.331 23.1408 159.625 59.1562" stroke="white" stroke-width="1.0281" stroke-miterlimit="10" stroke-linecap="round" stroke-linejoin="round"/>
<path d="M156.506 71.0211C159.905 71.0211 162.661 68.2709 162.661 64.8783C162.661 61.4857 159.905 58.7355 156.506 58.7355C153.106 58.7355 150.35 61.4857 150.35 64.8783C150.35 68.2709 153.106 71.0211 156.506 71.0211Z" stroke="white" stroke-width="1.0281" stroke-miterlimit="10" stroke-linecap="round" stroke-linejoin="round"/>
<path d="M197.403 286.02C222.953 305.795 254.996 317.576 289.822 317.576C339.32 317.576 383.253 293.762 410.827 256.989" stroke="white" stroke-width="0.9148" stroke-miterlimit="10" stroke-linecap="round" stroke-linejoin="round"/>
<path d="M292.689 336.088C365.376 336.088 427.439 290.396 451.556 226.275" stroke="white" stroke-width="0.8781" stroke-miterlimit="10" stroke-linecap="round" stroke-linejoin="round"/>
<path d="M168.396 287.282C192.765 311.769 224.724 328.683 260.477 334.153" stroke="white" stroke-width="1.1491" stroke-miterlimit="10" stroke-linecap="round" stroke-linejoin="round"/>
<path d="M138.544 86.0837C126.486 110.992 119.656 138.929 119.656 168.381C119.656 186.22 122.101 203.471 126.739 219.795" stroke="white" stroke-width="1.0852" stroke-miterlimit="10" stroke-linecap="round" stroke-linejoin="round"/>
<path d="M435.366 85.5788C438.626 85.5788 441.268 82.9416 441.268 79.6884C441.268 76.4352 438.626 73.798 435.366 73.798C432.106 73.798 429.463 76.4352 429.463 79.6884C429.463 82.9416 432.106 85.5788 435.366 85.5788Z" stroke="white" stroke-width="0.9857" stroke-miterlimit="10" stroke-linecap="round" stroke-linejoin="round"/>
<path d="M453.832 226.275C457.092 226.275 459.735 223.638 459.735 220.384C459.735 217.131 457.092 214.494 453.832 214.494C450.572 214.494 447.93 217.131 447.93 220.384C447.93 223.638 450.572 226.275 453.832 226.275Z" stroke="white" stroke-width="0.9857" stroke-miterlimit="10" stroke-linecap="round" stroke-linejoin="round"/>
<path d="M128.257 231.576C131.517 231.576 134.16 228.939 134.16 225.686C134.16 222.433 131.517 219.795 128.257 219.795C124.997 219.795 122.354 222.433 122.354 225.686C122.354 228.939 124.997 231.576 128.257 231.576Z" stroke="white" stroke-width="0.9857" stroke-miterlimit="10" stroke-linecap="round" stroke-linejoin="round"/>
<path d="M458.807 194.214C459.988 186.136 460.578 177.889 460.578 169.475C460.578 143.473 454.844 118.817 444.557 96.6864" stroke="white" stroke-width="1.0281" stroke-miterlimit="10" stroke-linecap="round" stroke-linejoin="round"/>
</g>
<defs>
<radialGradient id="paint0_radial_46_39" cx="0" cy="0" r="1" gradientUnits="userSpaceOnUse" gradientTransform="translate(289.717 166.739) scale(116.681 116.438)">
<stop stop-color="white"/>
<stop offset="1"/>
</radialGradient>
<clipPath id="clip0_46_39">
<rect width="461" height="370" fill="white"/>
</clipPath>
</defs>
</svg>
