<svg width="36" height="29" viewBox="0 0 36 29" fill="none" xmlns="http://www.w3.org/2000/svg">
<path d="M35.0044 15.3553L28.5244 12.8064C28.2937 12.7158 27.8156 12.5969 27.2756 12.8064L20.7956 15.3553C20.1938 15.5932 19.8 16.1482 19.8 16.7656C19.8 23.0867 23.6644 27.4594 27.2756 28.8811C27.8156 29.0906 28.2881 28.9717 28.5244 28.8811C31.41 27.7482 36 23.8174 36 16.7656C36 16.1482 35.6062 15.5932 35.0044 15.3553ZM27.9 26.1906V15.4799L33.2719 17.5926C32.9569 22.526 29.8462 25.2617 27.9 26.1906ZM12.6 14.5C16.5769 14.5 19.8 11.2545 19.8 7.25C19.8 3.24551 16.5769 0 12.6 0C8.62313 0 5.4 3.24551 5.4 7.25C5.4 11.2545 8.62313 14.5 12.6 14.5ZM18 16.7656C18 16.624 18.045 16.4937 18.0619 16.3578C17.9212 16.3521 17.7862 16.3125 17.64 16.3125H16.7006C15.4519 16.8902 14.0625 17.2188 12.6 17.2188C11.1375 17.2188 9.75375 16.8902 8.49938 16.3125H7.56C3.38625 16.3125 0 19.7223 0 23.925V26.2812C0 27.7822 1.20938 29 2.7 29H22.5C22.8825 29 23.2481 28.915 23.58 28.7734C20.5425 26.3436 18 22.1635 18 16.7656Z" fill="url(#paint0_linear_210_2946)"/>
<defs>
<linearGradient id="paint0_linear_210_2946" x1="18" y1="0" x2="18" y2="29" gradientUnits="userSpaceOnUse">
<stop stop-color="#FD3824"/>
<stop offset="1" stop-color="#E40201"/>
</linearGradient>
</defs>
</svg>
