<svg xmlns="http://www.w3.org/2000/svg" viewBox="0 0 15.05 15"><defs><style>.cls-1{fill:#202a33;}</style></defs><g id="Layer_2" data-name="Layer 2"><g id="Layer_1-2" data-name="Layer 1"><path class="cls-1" d="M15,3.54V6.88c0,.15,0,.21-.19.19H7.06c-.15,0-.2,0-.2-.21V1.34c0-.16,0-.23.21-.25C7.77,1,8.47.91,9.17.81L12.09.39C13,.26,13.94.14,14.86,0,15,0,15,.05,15,.17Z"/><path class="cls-1" d="M6.18,4.19V7c0,.2,0,.2-.21.2H.23C0,7.15,0,7.15,0,6.93V2.28C0,2.06,0,2.07.22,2,.78,2,1.33,1.88,1.88,1.8l1.28-.16,2.55-.36a2.29,2.29,0,0,1,.37,0c.07,0,.1,0,.1.09a.38.38,0,0,0,0,.15Zm-.1,0V1.47c0-.13,0-.16-.16-.15s-.17.06-.27.07L5,1.47c-.4.05-.81.1-1.21.17a2.68,2.68,0,0,0-.74.13H3a.62.62,0,0,0-.38,0,7,7,0,0,1-.9.14c-.25,0-.5.08-.76.09a6.17,6.17,0,0,1-.62.11c-.19,0-.22,0-.22.22V6.88c0,.2,0,.21.23.22h5.5c.24,0,.26,0,.26-.26Z"/><path class="cls-1" d="M6.18,10.81v2.78c0,.14,0,.19-.18.16l-1.36-.2-1.41-.18-2-.3C.88,13,.53,13,.17,12.94c-.12,0-.17-.06-.17-.19V8c0-.14,0-.2.18-.18H6c.13,0,.16,0,.16.17C6.17,8.93,6.18,9.87,6.18,10.81Zm-.1,0V8.18c0-.23-.1-.27-.27-.27H.29c-.19,0-.21,0-.21.22v4.52c0,.21,0,.23.23.25a7.37,7.37,0,0,1,.93.11c.38.07.77.11,1.15.17a4.11,4.11,0,0,1,.6.08c.28.06.55.08.82.12l.91.12c.3,0,.79.09,1.17.17.13,0,.19,0,.19-.16Z"/><path class="cls-1" d="M15.05,11.45v3.32c0,.25,0,.25-.25.21L13,14.73l-2.43-.34-2.31-.33C7.86,14,7.43,14,7,13.88c-.13,0-.14-.08-.14-.18V8c0-.19,0-.2.21-.2,2.61,0,5.22,0,7.82.06.14,0,.16,0,.16.17v3.39Zm-.06,0V8.11C15,8,15,8,14.91,8H7.15c-.22,0-.22,0-.22.21v5.59c0,.09,0,.12.13.13l.45,0c.26,0,.51.09.77.11a3.84,3.84,0,0,1,.76.07,5.31,5.31,0,0,0,.89.13c.33,0,.65.11,1,.13s.61.09.92.13l1.1.15a6,6,0,0,1,.84.11,4.31,4.31,0,0,0,.88.09h.07c.19.08.26,0,.26-.17Z"/><path class="cls-1" d="M6.08,4.17V6.8c0,.25,0,.26-.25.26H.32c-.2,0-.22,0-.22-.22V2.36c0-.2,0-.23.21-.22A6.17,6.17,0,0,0,.93,2a4.92,4.92,0,0,0,.76-.09,7,7,0,0,0,.9-.14A.62.62,0,0,1,3,1.8a.29.29,0,0,0,.13,0,2.61,2.61,0,0,1,.73-.13c.41-.07.81-.12,1.22-.17.2,0,.41-.07.61-.08s.18-.06.27-.07.17,0,.17.15C6.08,2.37,6.08,3.27,6.08,4.17Z"/><path class="cls-1" d="M6.08,10.81v2.68c0,.15-.06.19-.18.16a11.78,11.78,0,0,0-1.17-.17,5.67,5.67,0,0,1-.91-.12A7.37,7.37,0,0,1,3,13.23a4.3,4.3,0,0,1-.6-.08C2,13.1,1.63,13.06,1.24,13a7,7,0,0,0-.92-.12c-.21,0-.23,0-.23-.24V8.1c0-.2,0-.22.21-.22H1.6c1.15.06,2.3,0,3.45,0h.77c.17,0,.27,0,.27.26C6.07,9.05,6.08,9.93,6.08,10.81Z"/><path class="cls-1" d="M15,11.42v3.23c0,.2-.07.25-.26.17h-.07a4.31,4.31,0,0,1-.88-.09,4.83,4.83,0,0,1-.84-.11l-1.1-.15c-.31,0-.62-.11-.92-.13s-.65-.12-1-.13A6.58,6.58,0,0,1,9,14.08c-.25,0-.51-.06-.76-.07s-.51-.11-.77-.11l-.45-.05c-.09,0-.13,0-.13-.13V8.13c0-.21,0-.21.22-.21H14.9c.1,0,.08.07.08.13v3.37Z"/></g></g></svg>