<svg xmlns="http://www.w3.org/2000/svg" viewBox="0 0 13.33 13.25"><defs><style>.cls-1{fill:#202a33;}</style></defs><g id="Layer_2" data-name="Layer 2"><g id="Layer_1-2" data-name="Layer 1"><g id="Layer_1-3" data-name="Layer 1-3"><polyline class="cls-1" points="3.83 2.46 3.82 2.45 3.9 2.34 3.98 2.22"/><path class="cls-1" d="M3.85,2.48h0l.08-.12h0V2.29h0"/><path class="cls-1" d="M11.53,2.12v0h0a6.56,6.56,0,0,1,1.34,2.09,6.47,6.47,0,0,1,.46,2.42,6.64,6.64,0,0,1-1.78,4.45h0A6.68,6.68,0,0,1,0,6.68,6.61,6.61,0,0,1,1.78,2.12h0a1.3,1.3,0,0,1,.81-.39h0a2.75,2.75,0,0,1,.69.15,5,5,0,0,1,.66.32h0A8,8,0,0,1,5.49,3.49l.1.1-.11.1A18.87,18.87,0,0,0,3.63,5.92,10.68,10.68,0,0,0,2.42,8a6.69,6.69,0,0,0-.57,2.4,6.15,6.15,0,0,1,.56-1,17.85,17.85,0,0,1,2-2.39h0L5,6.26l.89-.89.7-.7.09-.09.1.09.3.29.28.27c.41.41.77.79,1.08,1.12a11.32,11.32,0,0,1,.79.88h0c.22.25.53.62.81,1s.48.58.58.72A8.5,8.5,0,0,1,11.28,10l.18.41a4.18,4.18,0,0,0-.18-1.57,10.21,10.21,0,0,0-1-2.12,18.85,18.85,0,0,0-2.47-3l-.11-.1.11-.1A8.75,8.75,0,0,1,9.54,2.18a4.76,4.76,0,0,1,1-.45h0A1.39,1.39,0,0,1,11,1.8a1.22,1.22,0,0,1,.41.29h0Z"/><path class="cls-1" d="M3.13,1.39h0l-.19-.22L3,1.1,3.09,1h0A6.41,6.41,0,0,1,4.8.27,6.65,6.65,0,0,1,10.11,1h0l.23.16a1.37,1.37,0,0,1,.17.17l-.22.18h0C9.4.57,6.74,2.67,6.74,2.67l-.09.07-.08-.06a11,11,0,0,0-1.36-.89A4.44,4.44,0,0,0,4.12,1.3h0a1.44,1.44,0,0,0-.58-.06,1,1,0,0,0-.41.15Z"/></g></g></g></svg>